<?xml version="1.0" encoding="UTF-8" standalone="no"?>
<svg
   xmlns:dc="http://purl.org/dc/elements/1.1/"
   xmlns:cc="http://creativecommons.org/ns#"
   xmlns:rdf="http://www.w3.org/1999/02/22-rdf-syntax-ns#"
   xmlns:svg="http://www.w3.org/2000/svg"
   xmlns="http://www.w3.org/2000/svg"
   xmlns:sodipodi="http://sodipodi.sourceforge.net/DTD/sodipodi-0.dtd"
   xmlns:inkscape="http://www.inkscape.org/namespaces/inkscape"
   aria-hidden="true"
   focusable="false"
   data-prefix="fas"
   data-icon="link"
   class="svg-inline--fa fa-link fa-w-16"
   role="img"
   viewBox="0 0 512 512"
   id="svg2"
   version="1.1"
   inkscape:version="0.91 r13725"
   sodipodi:docname="logo-beautify-url.svg">
  <metadata
     id="metadata10">
    <rdf:RDF>
      <cc:Work
         rdf:about="">
        <dc:format>image/svg+xml</dc:format>
        <dc:type
           rdf:resource="http://purl.org/dc/dcmitype/StillImage" />
      </cc:Work>
    </rdf:RDF>
  </metadata>
  <defs
     id="defs8" />
  <sodipodi:namedview
     pagecolor="#ffffff"
     bordercolor="#666666"
     borderopacity="1"
     objecttolerance="10"
     gridtolerance="10"
     guidetolerance="10"
     inkscape:pageopacity="0"
     inkscape:pageshadow="2"
     inkscape:window-width="1317"
     inkscape:window-height="744"
     id="namedview6"
     showgrid="false"
     inkscape:zoom="0.921875"
     inkscape:cx="348.76356"
     inkscape:cy="238.9997"
     inkscape:window-x="49"
     inkscape:window-y="24"
     inkscape:window-maximized="1"
     inkscape:current-layer="svg2" />
  <text
     xml:space="preserve"
     style="font-style:normal;font-weight:normal;font-size:211.14369202px;line-height:125%;font-family:sans-serif;letter-spacing:0px;word-spacing:0px;fill:#ff9000;fill-opacity:1;stroke:none;stroke-width:1px;stroke-linecap:butt;stroke-linejoin:miter;stroke-opacity:1"
     x="-272.37506"
     y="410.53812"
     id="text3360-3"
     sodipodi:linespacing="125%"
     transform="matrix(0.70375413,-0.71044361,0.71044361,0.70375413,0,0)"><tspan
       sodipodi:role="line"
       id="tspan3362-6"
       x="-272.37506"
       y="410.53812"
       style="font-style:normal;font-variant:normal;font-weight:bold;font-stretch:normal;font-size:204.49031067px;font-family:sans-serif;-inkscape-font-specification:'sans-serif Bold';fill:#ff9000;fill-opacity:1">tify</tspan></text>
  <text
     xml:space="preserve"
     style="font-style:normal;font-weight:normal;font-size:172.52050781px;line-height:125%;font-family:sans-serif;letter-spacing:0px;word-spacing:0px;fill:#8a48ff;fill-opacity:1;stroke:none;stroke-width:1px;stroke-linecap:butt;stroke-linejoin:miter;stroke-opacity:1"
     x="1.0527248"
     y="142.4765"
     id="text3360"
     sodipodi:linespacing="125%"><tspan
       sodipodi:role="line"
       id="tspan3362"
       x="1.0527248"
       y="142.4765"
       style="font-style:normal;font-variant:normal;font-weight:bold;font-stretch:normal;font-size:182.85992432px;font-family:sans-serif;-inkscape-font-specification:'sans-serif Bold';fill:#8a48ff;fill-opacity:1">Beau</tspan></text>
  <g
     transform="matrix(0.55452139,0,0,0.55452139,240.55987,238.39116)"
     id="g3">
    <path
       inkscape:connector-curvature="0"
       d="M 455.482,198.184 326.829,326.832 c -35.535,35.54 -93.108,35.54 -128.646,0 l -42.881,-42.886 42.881,-42.876 42.884,42.876 c 11.845,11.822 31.064,11.846 42.886,0 L 412.597,155.303 c 11.816,-11.831 11.816,-31.066 0,-42.9 L 369.716,69.522 c -11.822,-11.814 -31.064,-11.814 -42.887,0 l -45.928,45.936 C 259.609,102.927 235.41,97.553 211.452,99.167 l 72.501,-72.526 c 35.535,-35.521 93.136,-35.521 128.644,0 l 42.886,42.881 c 35.535,35.523 35.535,93.141 -10e-4,128.662 z m -254.276,168.514 -45.903,45.9 c -11.845,11.846 -31.064,11.817 -42.881,0 L 69.538,369.717 c -11.845,-11.821 -11.845,-31.041 0,-42.886 L 198.184,198.183 c 11.819,-11.814 31.069,-11.814 42.884,0 l 42.886,42.886 42.876,-42.886 -42.876,-42.881 c -35.54,-35.521 -93.113,-35.521 -128.65,0 L 26.655,283.946 c -35.538,35.545 -35.538,93.146 0,128.652 l 42.883,42.882 c 35.51,35.54 93.11,35.54 128.646,0 l 72.496,-72.499 c -23.956,1.597 -48.092,-3.784 -69.474,-16.283 z"
       id="path5"
       style="fill:#4acc4f;fill-opacity:1" />
  </g>
</svg>
