<?xml version="1.0" encoding="UTF-8" standalone="no"?>
<svg
   xmlns:dc="http://purl.org/dc/elements/1.1/"
   xmlns:cc="http://creativecommons.org/ns#"
   xmlns:rdf="http://www.w3.org/1999/02/22-rdf-syntax-ns#"
   xmlns:svg="http://www.w3.org/2000/svg"
   xmlns="http://www.w3.org/2000/svg"
   xmlns:sodipodi="http://sodipodi.sourceforge.net/DTD/sodipodi-0.dtd"
   xmlns:inkscape="http://www.inkscape.org/namespaces/inkscape"
   aria-hidden="true"
   focusable="false"
   data-prefix="fas"
   data-icon="link"
   class="svg-inline--fa fa-link fa-w-16"
   role="img"
   viewBox="0 0 512 512"
   id="svg2"
   version="1.1"
   inkscape:version="0.91 r13725"
   sodipodi:docname="logo-loteria.svg">
  <metadata
     id="metadata10">
    <rdf:RDF>
      <cc:Work
         rdf:about="">
        <dc:format>image/svg+xml</dc:format>
        <dc:type
           rdf:resource="http://purl.org/dc/dcmitype/StillImage" />
      </cc:Work>
    </rdf:RDF>
  </metadata>
  <defs
     id="defs8">
    <clipPath
       clipPathUnits="userSpaceOnUse"
       id="clipPath1696">
      <path
         d="m 141.733,0 1105.51,0 0,708.661 -1105.51,0 z"
         id="path1694"
         inkscape:connector-curvature="0" />
    </clipPath>
  </defs>
  <sodipodi:namedview
     pagecolor="#ffffff"
     bordercolor="#666666"
     borderopacity="1"
     objecttolerance="10"
     gridtolerance="10"
     guidetolerance="10"
     inkscape:pageopacity="0"
     inkscape:pageshadow="2"
     inkscape:window-width="1317"
     inkscape:window-height="744"
     id="namedview6"
     showgrid="false"
     inkscape:zoom="0.921875"
     inkscape:cx="366.31007"
     inkscape:cy="286.5873"
     inkscape:window-x="49"
     inkscape:window-y="24"
     inkscape:window-maximized="1"
     inkscape:current-layer="svg2" />
  <text
     xml:space="preserve"
     style="font-style:normal;font-weight:normal;font-size:233.11605835px;line-height:125%;font-family:sans-serif;letter-spacing:0px;word-spacing:0px;fill:#ff9000;fill-opacity:1;stroke:none;stroke-width:1px;stroke-linecap:butt;stroke-linejoin:miter;stroke-opacity:1"
     x="133.80438"
     y="343.38971"
     id="text3360-3"
     sodipodi:linespacing="125%"><tspan
       sodipodi:role="line"
       id="tspan3362-6"
       x="133.80438"
       y="343.38971"
       style="font-style:normal;font-variant:normal;font-weight:bold;font-stretch:normal;font-size:225.77030945px;font-family:sans-serif;-inkscape-font-specification:'sans-serif Bold';fill:#ff9000;fill-opacity:1">te</tspan></text>
  <text
     xml:space="preserve"
     style="font-style:normal;font-weight:normal;font-size:212.27784729px;line-height:125%;font-family:sans-serif;letter-spacing:0px;word-spacing:0px;fill:#8a48ff;fill-opacity:1;stroke:none;stroke-width:1px;stroke-linecap:butt;stroke-linejoin:miter;stroke-opacity:1"
     x="-7.1545854"
     y="177.53578"
     id="text3360"
     sodipodi:linespacing="125%"><tspan
       sodipodi:role="line"
       id="tspan3362"
       x="-7.1545854"
       y="177.53578"
       style="font-style:normal;font-variant:normal;font-weight:bold;font-stretch:normal;font-size:225px;font-family:sans-serif;-inkscape-font-specification:'sans-serif Bold';fill:#8a48ff;fill-opacity:1">L</tspan></text>
  <text
     xml:space="preserve"
     style="font-style:normal;font-weight:normal;font-size:233.53138733px;line-height:125%;font-family:sans-serif;letter-spacing:0px;word-spacing:0px;fill:#4acc4f;fill-opacity:1;stroke:none;stroke-width:1px;stroke-linecap:butt;stroke-linejoin:miter;stroke-opacity:1"
     x="176.00665"
     y="502.87833"
     id="text3360-3-3"
     sodipodi:linespacing="125%"><tspan
       sodipodi:role="line"
       id="tspan3362-6-6"
       x="176.00665"
       y="502.87833"
       style="font-style:normal;font-variant:normal;font-weight:bold;font-stretch:normal;font-size:226.17254639px;font-family:sans-serif;-inkscape-font-specification:'sans-serif Bold';fill:#4acc4f;fill-opacity:1">ria</tspan></text>
  <g
     transform="matrix(7.3179219,0,0,-7.3179219,-7020.9279,1375.7846)"
     id="g1692"
     clip-path="url(#clipPath1696)">
    <g
       id="g1698"
       transform="translate(985.7825,179.0967)"
       style="fill:#272c9b;fill-opacity:1">
      <path
         d="M 0,0 C 0,1.52 -1.228,2.806 -2.807,2.806 -4.327,2.806 -5.613,1.52 -5.613,0 l 0,-0.292 -0.294,-0.058 c -1.577,0 -2.806,-1.228 -2.806,-2.808 0,-1.519 1.229,-2.806 2.806,-2.806 l 5.907,0 z"
         style="fill:#272c9b;fill-opacity:1;fill-rule:nonzero;stroke:none"
         id="path1700"
         inkscape:connector-curvature="0" />
    </g>
    <g
       id="g1702"
       transform="translate(985.7825,166.3509)"
       style="fill:#f67a00;fill-opacity:1">
      <path
         d="m 0,0 c 0,-1.58 -1.228,-2.808 -2.807,-2.808 -1.52,0 -2.806,1.228 -2.806,2.808 l 0,0.292 -0.294,0 c -1.577,0 -2.806,1.286 -2.806,2.804 0,1.58 1.229,2.809 2.806,2.809 l 5.907,0 z"
         style="fill:#f67a00;fill-opacity:1;fill-rule:nonzero;stroke:none"
         id="path1704"
         inkscape:connector-curvature="0" />
    </g>
    <g
       id="g1706"
       transform="translate(986.66,179.0967)"
       style="fill:#f67a00;fill-opacity:1">
      <path
         d="M 0,0 C 0,1.52 1.286,2.806 2.806,2.806 4.385,2.806 5.613,1.52 5.613,0 l 0,-0.292 0.352,-0.058 c 1.518,0 2.805,-1.228 2.805,-2.808 0,-1.519 -1.287,-2.806 -2.805,-2.806 l -5.965,0 z"
         style="fill:#f67a00;fill-opacity:1;fill-rule:nonzero;stroke:none"
         id="path1708"
         inkscape:connector-curvature="0" />
    </g>
    <g
       id="g1710"
       transform="translate(986.66,166.3509)">
      <path
         d="m 0,0 c 0,-1.58 1.286,-2.808 2.806,-2.808 1.579,0 2.807,1.228 2.807,2.808 l 0,0.292 0.352,0 c 1.518,0 2.805,1.286 2.805,2.804 0,1.58 -1.287,2.809 -2.805,2.809 L 0,5.905 Z"
         style="fill:#272c9b;fill-opacity:1;fill-rule:nonzero;stroke:none"
         id="path1712"
         inkscape:connector-curvature="0" />
    </g>
  </g>
</svg>
