<svg id="Layer_35" enable-background="new 0 0 64 64" height="512" viewBox="0 0 64 64" width="512" xmlns="http://www.w3.org/2000/svg"><path d="m19.88 54c.37 1.31.66 2.64.84 4 .19 1.32.28 2.65.28 4h-10c2.39 0 4.57-1.45 6.17-3.82 1.03-1.5 1.82-3.37 2.3-5.47h.01c.14.43.28.86.4 1.29z" fill="#ffeaa7"/><path d="m62 55.01v6.99h-11c0-1.34.09-2.68.28-4 .18-1.36.47-2.69.84-4 1-3.49 2.65-6.79 4.88-9.71 3.12 2.62 5 6.52 5 10.72z" fill="#ffeaa7"/><path d="m11 56c2.48 0 4.7.85 6.17 2.18-1.6 2.37-3.78 3.82-6.17 3.82s-4.57-1.45-6.17-3.82c1.47-1.33 3.69-2.18 6.17-2.18z" fill="#f0d0b4"/><path d="m17.17 37.82c-1.47 1.33-3.69 2.18-6.17 2.18s-4.7-.85-6.17-2.18c1.6-2.37 3.78-3.82 6.17-3.82s4.57 1.45 6.17 3.82z" fill="#f0d0b4"/><path d="m11 40c2.48 0 4.7-.85 6.17-2.18.44.63.83 1.33 1.16 2.08 1.05 2.29 1.67 5.09 1.67 8.1 0 1.65-.18 3.24-.53 4.71-.48 2.1-1.27 3.97-2.3 5.47-1.47-1.33-3.69-2.18-6.17-2.18s-4.7.85-6.17 2.18c-1.74-2.55-2.83-6.17-2.83-10.18s1.09-7.63 2.83-10.18c1.47 1.33 3.69 2.18 6.17 2.18z" fill="#cf9e76"/><path d="m58 42.39c0 .39-.13.78-.38 1.09l-.48.63c-.05.06-.09.12-.14.18-2.23 2.92-3.88 6.22-4.88 9.71h-32.24c-.12-.43-.26-.86-.4-1.29h-.01c.35-1.47.53-3.06.53-4.71 0-3.01-.62-5.81-1.67-8.1h.01l7.66-1.94 9 12.04h2l9.26-11.97 10.39 2.63c.8.2 1.35.91 1.35 1.73z" fill="#ff826e"/><path d="m19.88 54c.37 1.31.66 2.64.84 4 .19 1.32.28 2.65.28 4h30c0-1.34.09-2.68.28-4 .18-1.36.47-2.69.84-4z" fill="#fcd770"/><path d="m46.26 38.03-9.26 11.97h-2l-9-12.04 4-1.01 6 8.05 6-8.05z" fill="#fcd770"/><path d="m42 32.84v4.11l-6 8.05-6-8.05v-4.11-.01c1.85.76 3.88 1.17 6 1.17s4.15-.41 6-1.17z" fill="#f0d0b4"/><path d="m40.58 2.02h-9.16c-6.36.3-11.42 5.54-11.42 11.98v4c0 6.35 3.7 11.84 9.06 14.42.31.15.62.29.94.41 1.85.76 3.88 1.17 6 1.17s4.15-.41 6-1.17c.32-.12.63-.26.94-.41 5.36-2.58 9.06-8.07 9.06-14.42v-4c0-6.44-5.06-11.68-11.42-11.98z" fill="#969faa"/><path d="m39 24h-6-7l2.18 6h5.82 4 5.82l2.18-6z" fill="#ccd1d9"/><path d="m46 16h-20c0-2.21 1.79-4 4-4h3 6 3c2.21 0 4 1.79 4 4z" fill="#ccd1d9"/><path d="m40 2c.19 0 .39 0 .58.02l-.02.65-1.56 9.33h-6l-1.56-9.33-.02-.65c.19-.02.39-.02.58-.02z" fill="#ffeaa7"/><path d="m26 16h20v8h-7-6-7z" fill="#69d6f4"/><circle cx="31" cy="19" r="1"/><circle cx="41" cy="19" r="1"/><path d="m58.347 44.182.065-.084c.379-.486.588-1.093.588-1.71 0-1.276-.864-2.386-2.1-2.698l-13.9-3.523v-2.693c5.888-2.674 10-8.597 10-15.474v-4c0-7.168-5.832-13-13-13h-8c-7.168 0-13 5.832-13 13v4c0 6.877 4.112 12.8 10 15.474v2.693l-10.149 2.572c-1.833-3.488-4.668-5.739-7.851-5.739-5.514 0-10 6.729-10 15s4.486 15 10 15h52v-7.987c0-4.122-1.695-8.007-4.653-10.831zm-28.495-12.514-.242-.668h3.544 5.693 3.544l-.243.667c-1.878.849-3.956 1.333-6.148 1.333s-4.269-.484-6.148-1.332zm2.662-28.668h6.973l-1.333 8h-4.306zm9.486 10c1.302 0 2.402.839 2.816 2h-17.632c.414-1.161 1.514-2 2.816-2zm1.118 16h-3.938l.667-4h4.725zm-8.937-4h3.639l-.666 4h-2.307zm-7.181-8h18v6h-4.819-8.361-4.82zm5.153 8 .667 4h-3.938l-1.455-4zm18.847-11v4c0 4.892-2.365 9.232-6 11.972v-.295l2-5.5v-8.177c0-2.757-2.243-5-5-5h-1.82l1.315-7.886c5.359.733 9.505 5.329 9.505 10.886zm-30 4v-4c0-5.557 4.146-10.153 9.505-10.886l1.315 7.886h-1.82c-2.757 0-5 2.243-5 5v8.176l2 5.499v.297c-3.635-2.74-6-7.08-6-11.972zm15 17c1.74 0 3.418-.265 5-.753v2.367l-5 6.712-5-6.712v-2.367c1.582.488 3.26.753 5 .753zm-6.402 3.079 6.402 8.595 6.402-8.595 2.132.54-8.025 10.381h-1.008l-7.803-10.44zm-3.999 1.013 8.9 11.908h2.992l9.156-11.845 9.762 2.474c.348.088.591.4.591.759 0 .173-.059.344-.166.481l-.483.623c-2.216 2.848-3.871 6.085-4.944 9.507h-30.801c-.037-.117-.065-.236-.103-.352.319-1.464.497-3.024.497-4.647 0-2.695-.483-5.22-1.316-7.409zm-3.766 19.908h28.335c-.067.664-.104 1.331-.127 2h-28.081c-.023-.669-.06-1.336-.127-2zm28.591-2h-28.846c-.113-.671-.253-1.337-.411-2h29.678c-.159.662-.307 1.328-.421 2zm-39.424-22c1.8 0 3.458.983 4.796 2.62-1.295.881-2.992 1.38-4.796 1.38s-3.501-.499-4.796-1.38c1.338-1.637 2.996-2.62 4.796-2.62zm-5.913 4.275c1.626 1.101 3.716 1.725 5.913 1.725s4.287-.624 5.913-1.725c1.292 2.31 2.087 5.365 2.087 8.725s-.795 6.415-2.087 8.725c-1.626-1.101-3.716-1.725-5.913-1.725s-4.287.624-5.913 1.725c-1.292-2.31-2.087-5.365-2.087-8.725s.795-6.415 2.087-8.725zm1.117 19.105c1.295-.881 2.992-1.38 4.796-1.38s3.501.499 4.796 1.38c-1.338 1.637-2.996 2.62-4.796 2.62s-3.458-.983-4.796-2.62zm13.166-2.197c.335 1.584.532 3.193.59 4.817h-3.992c1.371-1.184 2.538-2.836 3.402-4.817zm41.63 4.817h-8.958c.197-5.437 1.985-10.747 5.115-15.196 2.448 2.431 3.843 5.724 3.843 9.209z"/><path d="m8 49v2h2v2h2v-2h2v-2h-2v-2h2v-2h-2v-2h-2v2h-2v2h2v2z"/></svg>