<svg height="512pt" viewBox="0 0 512 512.00001" width="512pt" xmlns="http://www.w3.org/2000/svg"><path d="m0 20.878906v470.242188c0 11.53125 9.347656 20.878906 20.878906 20.878906h470.242188c11.53125 0 20.878906-9.347656 20.878906-20.878906v-470.242188c0-11.53125-9.347656-20.878906-20.878906-20.878906h-470.242188c-11.53125 0-20.878906 9.347656-20.878906 20.878906zm0 0" fill="#c7cfe2"/><path d="m491.121094 0h-50.109375v451.53125c0 11.53125-9.347657 20.878906-20.878907 20.878906h-420.132812v18.710938c0 11.53125 9.347656 20.878906 20.878906 20.878906h470.242188c11.53125 0 20.878906-9.347656 20.878906-20.878906v-470.242188c0-11.53125-9.347656-20.878906-20.878906-20.878906zm0 0" fill="#afb9d2"/><path d="m492 512h-82.429688v-102.429688h102.429688v82.429688c0 11.046875-8.953125 20-20 20zm0 0" fill="#629acc"/><path d="m204.855469 409.570312h102.429687v102.429688h-102.429687zm0 0" fill="#629acc"/><path d="m102.429688 512h-82.429688c-11.046875 0-20-8.953125-20-20v-82.429688h102.429688zm0 0" fill="#629acc"/><path d="m204.855469 472.410156h102.429687v39.589844h-102.429687zm0 0" fill="#48709b"/><path d="m0 472.410156v18.710938c0 11.53125 9.347656 20.878906 20.878906 20.878906h81.550782v-39.589844zm0 0" fill="#48709b"/><g fill="#629acc"><path d="m409.570312 204.714844h102.429688v102.429687h-102.429688zm0 0"/><path d="m204.855469 204.714844h102.429687v102.429687h-102.429687zm0 0"/><path d="m0 204.714844h102.429688v102.429687h-102.429688zm0 0"/><path d="m512 102.429688h-102.429688v-102.429688h82.429688c11.046875 0 20 8.953125 20 20zm0 0"/><path d="m0 102.429688h102.429688v-102.429688h-82.429688c-11.046875 0-20 8.953125-20 20zm0 0"/></g><path d="m491.121094 0h-50.109375v102.429688h70.988281v-81.550782c0-11.53125-9.347656-20.878906-20.878906-20.878906zm0 0" fill="#48709b"/><path d="m204.855469 0h102.429687v102.429688h-102.429687zm0 0" fill="#629acc"/><path d="m307.285156 307.144531h102.285156v102.425781h-102.285156zm0 0" fill="#629acc"/><path d="m102.429688 307.144531h102.425781v102.425781h-102.425781zm0 0" fill="#629acc"/><path d="m307.285156 102.429688h102.285156v102.285156h-102.285156zm0 0" fill="#629acc"/><path d="m102.429688 102.429688h102.425781v102.285156h-102.425781zm0 0" fill="#629acc"/><path d="m441.011719 409.570312v41.960938c0 11.53125-9.347657 20.878906-20.878907 20.878906h-10.5625v39.589844h81.550782c11.53125 0 20.878906-9.347656 20.878906-20.878906v-81.550782zm0 0" fill="#48709b"/><path d="m441.011719 204.714844h70.988281v102.429687h-70.988281zm0 0" fill="#48709b"/><path d="m388.398438 51.144531c0 16.550781-13.417969 29.96875-29.96875 29.96875-16.554688 0-29.972657-13.417969-29.972657-29.96875 0-16.554687 13.417969-29.972656 29.972657-29.972656 16.550781 0 29.96875 13.417969 29.96875 29.972656zm0 0" fill="#fff"/><path d="m183.613281 460.785156c0 16.554688-13.417969 29.972656-29.96875 29.972656-16.554687 0-29.972656-13.417968-29.972656-29.972656 0-16.550781 13.417969-29.96875 29.972656-29.96875 16.550781 0 29.96875 13.417969 29.96875 29.96875zm0 0" fill="#48709b"/><path d="m490.757812 153.644531c0 16.550781-13.417968 29.96875-29.972656 29.96875-16.550781 0-29.96875-13.417969-29.96875-29.96875 0-16.554687 13.417969-29.972656 29.96875-29.972656 16.554688 0 29.972656 13.417969 29.972656 29.972656zm0 0" fill="#fff"/><path d="m81.183594 51.214844c0 16.550781-13.417969 29.96875-29.96875 29.96875-16.554688 0-29.972656-13.417969-29.972656-29.96875 0-16.554688 13.417968-29.972656 29.972656-29.972656 16.550781 0 29.96875 13.417968 29.96875 29.972656zm0 0" fill="#fff"/><path d="m183.613281 153.570312c0 16.554688-13.417969 29.972657-29.96875 29.972657-16.554687 0-29.972656-13.417969-29.972656-29.972657 0-16.550781 13.417969-29.96875 29.972656-29.96875 16.550781 0 29.96875 13.417969 29.96875 29.96875zm0 0" fill="#fff"/><path d="m285.96875 358.355469c0 16.554687-13.417969 29.972656-29.96875 29.972656s-29.96875-13.417969-29.96875-29.972656c0-16.550781 13.417969-29.96875 29.96875-29.96875s29.96875 13.417969 29.96875 29.96875zm0 0" fill="#48709b"/><path d="m81.183594 358.355469c0 16.554687-13.417969 29.972656-29.96875 29.972656-16.554688 0-29.972656-13.417969-29.972656-29.972656 0-16.550781 13.417968-29.96875 29.972656-29.96875 16.550781 0 29.96875 13.417969 29.96875 29.96875zm0 0" fill="#48709b"/><path d="m388.398438 256.035156c0 16.550782-13.417969 29.96875-29.96875 29.96875-16.554688 0-29.972657-13.417968-29.972657-29.96875 0-16.550781 13.417969-29.96875 29.972657-29.96875 16.550781 0 29.96875 13.417969 29.96875 29.96875zm0 0" fill="#48709b"/><path d="m358.429688 21.171875c-3.507813 0-6.875.609375-10 1.71875 11.632812 4.117187 19.96875 15.207031 19.96875 28.253906 0 13.042969-8.335938 24.136719-19.96875 28.253907 3.125 1.109374 6.492187 1.714843 10 1.714843 16.550781 0 29.96875-13.417969 29.96875-29.96875 0-16.554687-13.417969-29.972656-29.96875-29.972656zm0 0" fill="#afb9d2"/><path d="m153.644531 430.816406c-3.507812 0-6.875.609375-10 1.714844 11.632813 4.117188 19.96875 15.210938 19.96875 28.253906 0 13.046875-8.335937 24.140625-19.96875 28.257813 3.125 1.105469 6.492188 1.714843 10 1.714843 16.550781 0 29.96875-13.417968 29.96875-29.972656 0-16.550781-13.417969-29.96875-29.96875-29.96875zm0 0" fill="#3a6187"/><path d="m460.785156 123.671875c-3.507812 0-6.871094.609375-10 1.714844 11.636719 4.117187 19.972656 15.210937 19.972656 28.253906 0 13.046875-8.335937 24.136719-19.972656 28.257813 3.128906 1.105468 6.492188 1.714843 10 1.714843 16.554688 0 29.972656-13.417969 29.972656-29.972656 0-16.550781-13.417968-29.96875-29.972656-29.96875zm0 0" fill="#afb9d2"/><path d="m51.214844 21.242188c-3.507813 0-6.871094.609374-10 1.71875 11.632812 4.117187 19.96875 15.207031 19.96875 28.253906 0 13.042968-8.335938 24.136718-19.96875 28.253906 3.128906 1.105469 6.492187 1.714844 10 1.714844 16.550781 0 29.96875-13.417969 29.96875-29.96875 0-16.554688-13.417969-29.972656-29.96875-29.972656zm0 0" fill="#afb9d2"/><path d="m153.644531 123.601562c-3.507812 0-6.875.609376-10 1.714844 11.632813 4.117188 19.96875 15.210938 19.96875 28.253906 0 13.046876-8.335937 24.140626-19.96875 28.257813 3.125 1.105469 6.492188 1.714844 10 1.714844 16.550781 0 29.96875-13.417969 29.96875-29.96875 0-16.554688-13.417969-29.972657-29.96875-29.972657zm0 0" fill="#afb9d2"/><path d="m256 328.386719c-3.507812 0-6.871094.609375-10 1.714843 11.632812 4.117188 19.96875 15.210938 19.96875 28.253907 0 13.046875-8.335938 24.136719-19.96875 28.257812 3.128906 1.105469 6.492188 1.714844 10 1.714844 16.550781 0 29.96875-13.417969 29.96875-29.972656 0-16.550781-13.417969-29.96875-29.96875-29.96875zm0 0" fill="#3a6187"/><path d="m51.214844 328.386719c-3.507813 0-6.871094.609375-10 1.714843 11.632812 4.117188 19.96875 15.210938 19.96875 28.253907 0 13.046875-8.335938 24.136719-19.96875 28.257812 3.128906 1.105469 6.492187 1.714844 10 1.714844 16.550781 0 29.96875-13.417969 29.96875-29.972656 0-16.550781-13.417969-29.96875-29.96875-29.96875zm0 0" fill="#3a6187"/><path d="m358.429688 226.066406c-3.507813 0-6.875.605469-10 1.714844 11.632812 4.117188 19.96875 15.207031 19.96875 28.253906 0 13.042969-8.335938 24.136719-19.96875 28.253906 3.125 1.109376 6.492187 1.71875 10 1.71875 16.550781 0 29.96875-13.417968 29.96875-29.972656 0-16.550781-13.417969-29.96875-29.96875-29.96875zm0 0" fill="#3a6187"/></svg>