<?xml version="1.0" encoding="UTF-8" standalone="no"?>
<!-- Created with Inkscape (http://www.inkscape.org/) -->

<svg
   xmlns:dc="http://purl.org/dc/elements/1.1/"
   xmlns:cc="http://creativecommons.org/ns#"
   xmlns:rdf="http://www.w3.org/1999/02/22-rdf-syntax-ns#"
   xmlns:svg="http://www.w3.org/2000/svg"
   xmlns="http://www.w3.org/2000/svg"
   xmlns:sodipodi="http://sodipodi.sourceforge.net/DTD/sodipodi-0.dtd"
   xmlns:inkscape="http://www.inkscape.org/namespaces/inkscape"
   version="1.1"
   id="svg2"
   xml:space="preserve"
   width="163.20267"
   height="32.639999"
   viewBox="0 0 163.20266 32.64"
   sodipodi:docname="loterias-megasena.svg"
   inkscape:version="0.91 r13725"><metadata
     id="metadata8"><rdf:RDF><cc:Work
         rdf:about=""><dc:format>image/svg+xml</dc:format><dc:type
           rdf:resource="http://purl.org/dc/dcmitype/StillImage" /><dc:title></dc:title></cc:Work></rdf:RDF></metadata><defs
     id="defs6"><clipPath
       clipPathUnits="userSpaceOnUse"
       id="clipPath20"><path
         d="m 0,708.661 1275.59,0 L 1275.59,0 0,0 Z"
         id="path18"
         inkscape:connector-curvature="0" /></clipPath><clipPath
       clipPathUnits="userSpaceOnUse"
       id="clipPath58"><path
         d="m 141.733,0 1105.51,0 0,708.661 -1105.51,0 z"
         id="path56"
         inkscape:connector-curvature="0" /></clipPath><clipPath
       clipPathUnits="userSpaceOnUse"
       id="clipPath132"><path
         d="m 141.733,0 1105.51,0 0,708.661 -1105.51,0 z"
         id="path130"
         inkscape:connector-curvature="0" /></clipPath><clipPath
       clipPathUnits="userSpaceOnUse"
       id="clipPath750"><path
         d="m 141.733,0 1105.51,0 0,708.661 -1105.51,0 z"
         id="path748"
         inkscape:connector-curvature="0" /></clipPath><clipPath
       clipPathUnits="userSpaceOnUse"
       id="clipPath1006"><path
         d="m 141.733,0 1105.51,0 0,708.661 -1105.51,0 z"
         id="path1004"
         inkscape:connector-curvature="0" /></clipPath><clipPath
       clipPathUnits="userSpaceOnUse"
       id="clipPath1042"><path
         d="m 815.478,158.644 228.672,0 0,-229.8158 -228.672,0 z"
         id="path1040"
         inkscape:connector-curvature="0" /></clipPath><clipPath
       clipPathUnits="userSpaceOnUse"
       id="clipPath1046"><path
         d="m 815.478,-71.172 228.674,0 0,229.816 -228.674,0 z"
         id="path1044"
         inkscape:connector-curvature="0" /></clipPath><clipPath
       clipPathUnits="userSpaceOnUse"
       id="clipPath1092"><path
         d="m 1017.525,444.359 47.65,0 0,79.37 -47.65,0 z"
         id="path1090"
         inkscape:connector-curvature="0" /></clipPath><clipPath
       clipPathUnits="userSpaceOnUse"
       id="clipPath1232"><path
         d="m 141.733,0 1105.51,0 0,708.661 -1105.51,0 z"
         id="path1230"
         inkscape:connector-curvature="0" /></clipPath><clipPath
       clipPathUnits="userSpaceOnUse"
       id="clipPath1250"><path
         d="m 141.733,0 1105.51,0 0,708.661 -1105.51,0 z"
         id="path1248"
         inkscape:connector-curvature="0" /></clipPath><clipPath
       clipPathUnits="userSpaceOnUse"
       id="clipPath1280"><path
         d="m 141.733,0 1105.51,0 0,708.661 -1105.51,0 z"
         id="path1278"
         inkscape:connector-curvature="0" /></clipPath><clipPath
       clipPathUnits="userSpaceOnUse"
       id="clipPath1336"><path
         d="m 141.733,0 1105.51,0 0,708.661 -1105.51,0 z"
         id="path1334"
         inkscape:connector-curvature="0" /></clipPath><clipPath
       clipPathUnits="userSpaceOnUse"
       id="clipPath1362"><path
         d="m 141.733,0 1105.51,0 0,708.661 -1105.51,0 z"
         id="path1360"
         inkscape:connector-curvature="0" /></clipPath><clipPath
       clipPathUnits="userSpaceOnUse"
       id="clipPath1382"><path
         d="m 141.733,0 1105.51,0 0,708.661 -1105.51,0 z"
         id="path1380"
         inkscape:connector-curvature="0" /></clipPath><clipPath
       clipPathUnits="userSpaceOnUse"
       id="clipPath1406"><path
         d="m 141.733,0 1105.51,0 0,708.661 -1105.51,0 z"
         id="path1404"
         inkscape:connector-curvature="0" /></clipPath><clipPath
       clipPathUnits="userSpaceOnUse"
       id="clipPath1426"><path
         d="m 141.733,0 1105.51,0 0,708.661 -1105.51,0 z"
         id="path1424"
         inkscape:connector-curvature="0" /></clipPath><clipPath
       clipPathUnits="userSpaceOnUse"
       id="clipPath1452"><path
         d="m 141.733,0 1105.51,0 0,708.661 -1105.51,0 z"
         id="path1450"
         inkscape:connector-curvature="0" /></clipPath><clipPath
       clipPathUnits="userSpaceOnUse"
       id="clipPath1484"><path
         d="m 141.733,0 1105.51,0 0,708.661 -1105.51,0 z"
         id="path1482"
         inkscape:connector-curvature="0" /></clipPath><clipPath
       clipPathUnits="userSpaceOnUse"
       id="clipPath1500"><path
         d="m 141.733,0 1105.51,0 0,708.661 -1105.51,0 z"
         id="path1498"
         inkscape:connector-curvature="0" /></clipPath><clipPath
       clipPathUnits="userSpaceOnUse"
       id="clipPath1522"><path
         d="m 141.733,0 1105.51,0 0,708.661 -1105.51,0 z"
         id="path1520"
         inkscape:connector-curvature="0" /></clipPath><clipPath
       clipPathUnits="userSpaceOnUse"
       id="clipPath1550"><path
         d="m 141.733,0 1105.51,0 0,708.661 -1105.51,0 z"
         id="path1548"
         inkscape:connector-curvature="0" /></clipPath><clipPath
       clipPathUnits="userSpaceOnUse"
       id="clipPath1592"><path
         d="m 141.733,0 1105.51,0 0,708.661 -1105.51,0 z"
         id="path1590"
         inkscape:connector-curvature="0" /></clipPath><clipPath
       clipPathUnits="userSpaceOnUse"
       id="clipPath1624"><path
         d="m 141.733,0 1105.51,0 0,708.661 -1105.51,0 z"
         id="path1622"
         inkscape:connector-curvature="0" /></clipPath><clipPath
       clipPathUnits="userSpaceOnUse"
       id="clipPath1640"><path
         d="m 141.733,0 1105.51,0 0,708.661 -1105.51,0 z"
         id="path1638"
         inkscape:connector-curvature="0" /></clipPath><clipPath
       clipPathUnits="userSpaceOnUse"
       id="clipPath1668"><path
         d="m 141.733,0 1105.51,0 0,708.661 -1105.51,0 z"
         id="path1666"
         inkscape:connector-curvature="0" /></clipPath><clipPath
       clipPathUnits="userSpaceOnUse"
       id="clipPath1696"><path
         d="m 141.733,0 1105.51,0 0,708.661 -1105.51,0 z"
         id="path1694"
         inkscape:connector-curvature="0" /></clipPath><clipPath
       clipPathUnits="userSpaceOnUse"
       id="clipPath1722"><path
         d="m 141.733,0 1105.51,0 0,708.661 -1105.51,0 z"
         id="path1720"
         inkscape:connector-curvature="0" /></clipPath><clipPath
       clipPathUnits="userSpaceOnUse"
       id="clipPath1752"><path
         d="m 141.733,0 1105.51,0 0,708.661 -1105.51,0 z"
         id="path1750"
         inkscape:connector-curvature="0" /></clipPath><clipPath
       clipPathUnits="userSpaceOnUse"
       id="clipPath1808"><path
         d="m 141.733,0 1105.51,0 0,708.661 -1105.51,0 z"
         id="path1806"
         inkscape:connector-curvature="0" /></clipPath><clipPath
       clipPathUnits="userSpaceOnUse"
       id="clipPath1830"><path
         d="m 141.733,0 1105.51,0 0,708.661 -1105.51,0 z"
         id="path1828"
         inkscape:connector-curvature="0" /></clipPath><clipPath
       clipPathUnits="userSpaceOnUse"
       id="clipPath1874"><path
         d="m 141.733,0 1105.51,0 0,708.661 -1105.51,0 z"
         id="path1872"
         inkscape:connector-curvature="0" /></clipPath></defs><sodipodi:namedview
     pagecolor="#ffffff"
     bordercolor="#666666"
     borderopacity="1"
     objecttolerance="10"
     gridtolerance="10"
     guidetolerance="10"
     inkscape:pageopacity="0"
     inkscape:pageshadow="2"
     inkscape:window-width="1317"
     inkscape:window-height="744"
     id="namedview4"
     showgrid="false"
     fit-margin-top="0"
     fit-margin-left="0"
     fit-margin-right="0"
     fit-margin-bottom="0"
     inkscape:zoom="1.7121488"
     inkscape:cx="196.95153"
     inkscape:cy="-58.057563"
     inkscape:window-x="49"
     inkscape:window-y="24"
     inkscape:window-maximized="1"
     inkscape:current-layer="g10" /><g
     id="g10"
     inkscape:groupmode="layer"
     inkscape:label="loterias-logo"
     transform="matrix(1.3333333,0,0,-1.3333333,-605.22757,503.0244)"><path
       d="m 453.92069,377.26831 122.402,0 0,-24.48 -122.402,0 z"
       style="fill:#009e4c;fill-opacity:1;fill-rule:nonzero;stroke:none"
       id="path1584"
       inkscape:connector-curvature="0" /><g
       id="g1586"
       transform="translate(-497.62031,164.70531)"><g
         id="g1588"
         clip-path="url(#clipPath1592)"><g
           id="g1594"
           transform="translate(973.5386,206.6978)"><path
             d="M 0,0 C 0,1.525 -1.282,2.806 -2.806,2.806 -4.332,2.806 -5.613,1.525 -5.613,0 l 0,-0.305 -0.304,0 c -1.526,0 -2.806,-1.281 -2.806,-2.867 0,-1.525 1.28,-2.806 2.806,-2.806 l 5.917,0 z"
             style="fill:#ffffff;fill-opacity:1;fill-rule:nonzero;stroke:none"
             id="path1596"
             inkscape:connector-curvature="0" /></g><g
           id="g1598"
           transform="translate(973.5386,193.9495)"><path
             d="m 0,0 c 0,-1.526 -1.282,-2.806 -2.806,-2.806 -1.526,0 -2.807,1.28 -2.807,2.806 l 0,0.305 -0.304,0 c -1.526,0 -2.806,1.281 -2.806,2.806 0,1.525 1.28,2.805 2.806,2.805 l 5.917,0 z"
             style="fill:#b4d9b9;fill-opacity:1;fill-rule:nonzero;stroke:none"
             id="path1600"
             inkscape:connector-curvature="0" /></g><g
           id="g1602"
           transform="translate(974.4537,206.6978)"><path
             d="M 0,0 C 0,1.525 1.22,2.806 2.805,2.806 4.33,2.806 5.611,1.525 5.611,0 l 0,-0.305 0.305,0 c 1.525,0 2.805,-1.281 2.805,-2.867 0,-1.525 -1.28,-2.806 -2.805,-2.806 l -5.916,0 z"
             style="fill:#b4d9b9;fill-opacity:1;fill-rule:nonzero;stroke:none"
             id="path1604"
             inkscape:connector-curvature="0" /></g><g
           id="g1606"
           transform="translate(974.4537,193.9495)"><path
             d="m 0,0 c 0,-1.526 1.22,-2.806 2.805,-2.806 1.525,0 2.806,1.28 2.806,2.806 l 0,0.305 0.305,0 c 1.525,0 2.805,1.281 2.805,2.806 0,1.525 -1.28,2.805 -2.805,2.805 L 0,5.916 Z"
             style="fill:#ffffff;fill-opacity:1;fill-rule:nonzero;stroke:none"
             id="path1608"
             inkscape:connector-curvature="0" /></g></g></g><g
       id="g1610"
       transform="translate(494.60849,367.87241)"><path
         d="m 0,0 -1.655,-8.712 -2.809,0 2.7,11.736 3.816,0 0.037,-6.192 1.979,6.192 3.852,0 -1.007,-11.736 -2.845,0 1.08,8.676 -2.807,-8.676 -2.197,0 z"
         style="fill:#ffffff;fill-opacity:1;fill-rule:nonzero;stroke:none"
         id="path1612"
         inkscape:connector-curvature="0" /></g><g
       id="g1614"
       transform="translate(502.52859,359.16031)"><path
         d="m 0,0 1.872,11.736 5.797,0 -0.432,-2.843 -2.556,0 -0.252,-1.477 2.304,0 -0.432,-2.772 -2.268,0 -0.288,-1.62 2.556,0 L 5.797,0 Z"
         style="fill:#ffffff;fill-opacity:1;fill-rule:nonzero;stroke:none"
         id="path1616"
         inkscape:connector-curvature="0" /></g><g
       id="g1618"
       transform="translate(-497.62031,164.70531)"><g
         id="g1620"
         clip-path="url(#clipPath1624)"><g
           id="g1626"
           transform="translate(1012.1732,201.2591)"><path
             d="M 0,0 4.177,0 C 4.069,-2.376 3.637,-4.14 2.809,-5.292 1.98,-6.444 0.757,-7.021 -0.792,-7.021 c -1.259,0 -2.195,0.361 -2.843,1.117 -0.649,0.792 -0.973,1.872 -0.973,3.348 0,1.116 0.109,2.196 0.397,3.204 0.287,1.045 0.647,1.908 1.152,2.628 0.396,0.613 0.936,1.08 1.584,1.404 0.648,0.325 1.367,0.505 2.16,0.505 1.008,0 1.871,-0.253 2.521,-0.721 C 3.852,3.96 4.249,3.276 4.429,2.376 L 1.405,1.26 C 1.333,1.656 1.188,1.908 1.081,2.052 0.936,2.196 0.757,2.268 0.505,2.268 0.253,2.268 0.073,2.16 -0.108,2.016 -0.323,1.836 -0.467,1.548 -0.612,1.188 -0.792,0.648 -0.935,0 -1.079,-0.828 -1.223,-1.656 -1.296,-2.34 -1.296,-2.952 c 0,-0.432 0.073,-0.757 0.181,-0.936 0.143,-0.18 0.36,-0.288 0.648,-0.288 0.359,0 0.647,0.18 0.863,0.504 0.217,0.288 0.325,0.755 0.361,1.332 l -1.08,0 z"
             style="fill:#ffffff;fill-opacity:1;fill-rule:nonzero;stroke:none"
             id="path1628"
             inkscape:connector-curvature="0" /></g></g></g><g
       id="g1630"
       transform="translate(517.68599,359.16031)"><path
         d="m 0,0 4.391,11.736 3.89,0 L 9.107,0 l -3.31,0 0,1.728 -1.945,0 L 3.347,0 Z m 4.572,4.104 1.296,0 0.036,4.356 z"
         style="fill:#ffffff;fill-opacity:1;fill-rule:nonzero;stroke:none"
         id="path1632"
         inkscape:connector-curvature="0" /></g><g
       id="g1634"
       transform="translate(-497.62031,164.70531)"><g
         id="g1636"
         clip-path="url(#clipPath1640)"><g
           id="g1642"
           transform="translate(1029.0216,198.0549)"><path
             d="m 0,0 c 0.361,-0.288 0.756,-0.54 1.153,-0.684 0.395,-0.18 0.792,-0.252 1.153,-0.252 0.323,0 0.61,0.072 0.791,0.252 0.181,0.179 0.287,0.432 0.287,0.756 0,0.252 -0.07,0.504 -0.251,0.792 C 2.988,1.116 2.665,1.476 2.198,1.908 1.657,2.448 1.261,2.917 1.045,3.348 0.865,3.744 0.756,4.212 0.756,4.716 c 0,1.116 0.361,2.016 1.045,2.664 0.72,0.648 1.692,1.009 2.915,1.009 0.468,0 0.938,-0.072 1.406,-0.18 C 6.552,8.1 7.022,7.921 7.454,7.704 L 6.986,4.824 C 6.661,5.076 6.301,5.256 5.977,5.4 5.617,5.544 5.329,5.58 5.005,5.58 4.716,5.58 4.501,5.509 4.357,5.364 4.214,5.22 4.105,5.04 4.105,4.788 4.105,4.464 4.429,3.996 5.041,3.384 5.114,3.312 5.149,3.276 5.222,3.204 5.833,2.628 6.229,2.089 6.409,1.692 6.589,1.26 6.697,0.756 6.697,0.18 c 0,-1.26 -0.396,-2.232 -1.152,-2.952 -0.792,-0.72 -1.836,-1.08 -3.168,-1.08 -0.576,0 -1.116,0.072 -1.656,0.18 -0.505,0.144 -0.936,0.324 -1.26,0.576 z"
             style="fill:#ffffff;fill-opacity:1;fill-rule:nonzero;stroke:none"
             id="path1644"
             inkscape:connector-curvature="0" /></g></g></g><g
       id="g1646"
       transform="translate(538.35059,359.16031)"><path
         d="m 0,0 1.836,11.736 5.832,0 -0.467,-2.843 -2.521,0 -0.252,-1.477 2.303,0 -0.431,-2.772 -2.305,0 -0.25,-1.62 2.518,0 L 5.796,0 Z"
         style="fill:#ffffff;fill-opacity:1;fill-rule:nonzero;stroke:none"
         id="path1648"
         inkscape:connector-curvature="0" /></g><g
       id="g1650"
       transform="translate(545.44259,359.16031)"><path
         d="m 0,0 1.871,11.736 3.025,0 1.08,-6.3 1.08,6.3 2.773,0 L 7.956,0 4.968,0 3.852,6.084 2.808,0 Z"
         style="fill:#ffffff;fill-opacity:1;fill-rule:nonzero;stroke:none"
         id="path1652"
         inkscape:connector-curvature="0" /></g><g
       id="g1654"
       transform="translate(562.21969,370.89671)"><path
         d="m 0,0 0.828,-11.736 -3.313,0 0,1.728 -1.944,0 -0.503,-1.728 -3.348,0 L -3.888,0 Z m -2.413,-7.632 0.037,4.356 -1.332,-4.356 z"
         style="fill:#ffffff;fill-opacity:1;fill-rule:nonzero;stroke:none"
         id="path1656"
         inkscape:connector-curvature="0" /></g><path
       d="m 528.70169,363.73231 2.557,0 0,1.945 -2.557,0 z"
       style="fill:#ffffff;fill-opacity:1;fill-rule:nonzero;stroke:none"
       id="path1658"
       inkscape:connector-curvature="0" /></g></svg>