<?xml version="1.0" encoding="UTF-8" standalone="no"?>
<!-- Created with Inkscape (http://www.inkscape.org/) -->

<svg
   xmlns:dc="http://purl.org/dc/elements/1.1/"
   xmlns:cc="http://creativecommons.org/ns#"
   xmlns:rdf="http://www.w3.org/1999/02/22-rdf-syntax-ns#"
   xmlns:svg="http://www.w3.org/2000/svg"
   xmlns="http://www.w3.org/2000/svg"
   xmlns:sodipodi="http://sodipodi.sourceforge.net/DTD/sodipodi-0.dtd"
   xmlns:inkscape="http://www.inkscape.org/namespaces/inkscape"
   version="1.1"
   id="svg2"
   xml:space="preserve"
   width="163.952"
   height="32.675999"
   viewBox="0 0 163.95199 32.675999"
   sodipodi:docname="loterias-logo (cópia).svg"
   inkscape:version="0.91 r13725"><metadata
     id="metadata8"><rdf:RDF><cc:Work
         rdf:about=""><dc:format>image/svg+xml</dc:format><dc:type
           rdf:resource="http://purl.org/dc/dcmitype/StillImage" /><dc:title></dc:title></cc:Work></rdf:RDF></metadata><defs
     id="defs6"><clipPath
       clipPathUnits="userSpaceOnUse"
       id="clipPath20"><path
         d="m 0,708.661 1275.59,0 L 1275.59,0 0,0 Z"
         id="path18"
         inkscape:connector-curvature="0" /></clipPath><clipPath
       clipPathUnits="userSpaceOnUse"
       id="clipPath58"><path
         d="m 141.733,0 1105.51,0 0,708.661 -1105.51,0 z"
         id="path56"
         inkscape:connector-curvature="0" /></clipPath><clipPath
       clipPathUnits="userSpaceOnUse"
       id="clipPath132"><path
         d="m 141.733,0 1105.51,0 0,708.661 -1105.51,0 z"
         id="path130"
         inkscape:connector-curvature="0" /></clipPath><clipPath
       clipPathUnits="userSpaceOnUse"
       id="clipPath750"><path
         d="m 141.733,0 1105.51,0 0,708.661 -1105.51,0 z"
         id="path748"
         inkscape:connector-curvature="0" /></clipPath><clipPath
       clipPathUnits="userSpaceOnUse"
       id="clipPath1006"><path
         d="m 141.733,0 1105.51,0 0,708.661 -1105.51,0 z"
         id="path1004"
         inkscape:connector-curvature="0" /></clipPath><clipPath
       clipPathUnits="userSpaceOnUse"
       id="clipPath1042"><path
         d="m 815.478,158.644 228.672,0 0,-229.8158 -228.672,0 z"
         id="path1040"
         inkscape:connector-curvature="0" /></clipPath><clipPath
       clipPathUnits="userSpaceOnUse"
       id="clipPath1046"><path
         d="m 815.478,-71.172 228.674,0 0,229.816 -228.674,0 z"
         id="path1044"
         inkscape:connector-curvature="0" /></clipPath><clipPath
       clipPathUnits="userSpaceOnUse"
       id="clipPath1092"><path
         d="m 1017.525,444.359 47.65,0 0,79.37 -47.65,0 z"
         id="path1090"
         inkscape:connector-curvature="0" /></clipPath><clipPath
       clipPathUnits="userSpaceOnUse"
       id="clipPath1232"><path
         d="m 141.733,0 1105.51,0 0,708.661 -1105.51,0 z"
         id="path1230"
         inkscape:connector-curvature="0" /></clipPath><clipPath
       clipPathUnits="userSpaceOnUse"
       id="clipPath1250"><path
         d="m 141.733,0 1105.51,0 0,708.661 -1105.51,0 z"
         id="path1248"
         inkscape:connector-curvature="0" /></clipPath><clipPath
       clipPathUnits="userSpaceOnUse"
       id="clipPath1280"><path
         d="m 141.733,0 1105.51,0 0,708.661 -1105.51,0 z"
         id="path1278"
         inkscape:connector-curvature="0" /></clipPath><clipPath
       clipPathUnits="userSpaceOnUse"
       id="clipPath1336"><path
         d="m 141.733,0 1105.51,0 0,708.661 -1105.51,0 z"
         id="path1334"
         inkscape:connector-curvature="0" /></clipPath><clipPath
       clipPathUnits="userSpaceOnUse"
       id="clipPath1362"><path
         d="m 141.733,0 1105.51,0 0,708.661 -1105.51,0 z"
         id="path1360"
         inkscape:connector-curvature="0" /></clipPath><clipPath
       clipPathUnits="userSpaceOnUse"
       id="clipPath1382"><path
         d="m 141.733,0 1105.51,0 0,708.661 -1105.51,0 z"
         id="path1380"
         inkscape:connector-curvature="0" /></clipPath><clipPath
       clipPathUnits="userSpaceOnUse"
       id="clipPath1406"><path
         d="m 141.733,0 1105.51,0 0,708.661 -1105.51,0 z"
         id="path1404"
         inkscape:connector-curvature="0" /></clipPath><clipPath
       clipPathUnits="userSpaceOnUse"
       id="clipPath1426"><path
         d="m 141.733,0 1105.51,0 0,708.661 -1105.51,0 z"
         id="path1424"
         inkscape:connector-curvature="0" /></clipPath><clipPath
       clipPathUnits="userSpaceOnUse"
       id="clipPath1452"><path
         d="m 141.733,0 1105.51,0 0,708.661 -1105.51,0 z"
         id="path1450"
         inkscape:connector-curvature="0" /></clipPath><clipPath
       clipPathUnits="userSpaceOnUse"
       id="clipPath1484"><path
         d="m 141.733,0 1105.51,0 0,708.661 -1105.51,0 z"
         id="path1482"
         inkscape:connector-curvature="0" /></clipPath><clipPath
       clipPathUnits="userSpaceOnUse"
       id="clipPath1500"><path
         d="m 141.733,0 1105.51,0 0,708.661 -1105.51,0 z"
         id="path1498"
         inkscape:connector-curvature="0" /></clipPath><clipPath
       clipPathUnits="userSpaceOnUse"
       id="clipPath1522"><path
         d="m 141.733,0 1105.51,0 0,708.661 -1105.51,0 z"
         id="path1520"
         inkscape:connector-curvature="0" /></clipPath><clipPath
       clipPathUnits="userSpaceOnUse"
       id="clipPath1550"><path
         d="m 141.733,0 1105.51,0 0,708.661 -1105.51,0 z"
         id="path1548"
         inkscape:connector-curvature="0" /></clipPath><clipPath
       clipPathUnits="userSpaceOnUse"
       id="clipPath1592"><path
         d="m 141.733,0 1105.51,0 0,708.661 -1105.51,0 z"
         id="path1590"
         inkscape:connector-curvature="0" /></clipPath><clipPath
       clipPathUnits="userSpaceOnUse"
       id="clipPath1624"><path
         d="m 141.733,0 1105.51,0 0,708.661 -1105.51,0 z"
         id="path1622"
         inkscape:connector-curvature="0" /></clipPath><clipPath
       clipPathUnits="userSpaceOnUse"
       id="clipPath1640"><path
         d="m 141.733,0 1105.51,0 0,708.661 -1105.51,0 z"
         id="path1638"
         inkscape:connector-curvature="0" /></clipPath><clipPath
       clipPathUnits="userSpaceOnUse"
       id="clipPath1668"><path
         d="m 141.733,0 1105.51,0 0,708.661 -1105.51,0 z"
         id="path1666"
         inkscape:connector-curvature="0" /></clipPath><clipPath
       clipPathUnits="userSpaceOnUse"
       id="clipPath1696"><path
         d="m 141.733,0 1105.51,0 0,708.661 -1105.51,0 z"
         id="path1694"
         inkscape:connector-curvature="0" /></clipPath><clipPath
       clipPathUnits="userSpaceOnUse"
       id="clipPath1722"><path
         d="m 141.733,0 1105.51,0 0,708.661 -1105.51,0 z"
         id="path1720"
         inkscape:connector-curvature="0" /></clipPath><clipPath
       clipPathUnits="userSpaceOnUse"
       id="clipPath1752"><path
         d="m 141.733,0 1105.51,0 0,708.661 -1105.51,0 z"
         id="path1750"
         inkscape:connector-curvature="0" /></clipPath><clipPath
       clipPathUnits="userSpaceOnUse"
       id="clipPath1808"><path
         d="m 141.733,0 1105.51,0 0,708.661 -1105.51,0 z"
         id="path1806"
         inkscape:connector-curvature="0" /></clipPath><clipPath
       clipPathUnits="userSpaceOnUse"
       id="clipPath1830"><path
         d="m 141.733,0 1105.51,0 0,708.661 -1105.51,0 z"
         id="path1828"
         inkscape:connector-curvature="0" /></clipPath><clipPath
       clipPathUnits="userSpaceOnUse"
       id="clipPath1874"><path
         d="m 141.733,0 1105.51,0 0,708.661 -1105.51,0 z"
         id="path1872"
         inkscape:connector-curvature="0" /></clipPath></defs><sodipodi:namedview
     pagecolor="#ffffff"
     bordercolor="#666666"
     borderopacity="1"
     objecttolerance="10"
     gridtolerance="10"
     guidetolerance="10"
     inkscape:pageopacity="0"
     inkscape:pageshadow="2"
     inkscape:window-width="1317"
     inkscape:window-height="744"
     id="namedview4"
     showgrid="false"
     fit-margin-top="0"
     fit-margin-left="0"
     fit-margin-right="0"
     fit-margin-bottom="0"
     inkscape:zoom="2.4213441"
     inkscape:cx="-22.560318"
     inkscape:cy="-7.3009159"
     inkscape:window-x="49"
     inkscape:window-y="24"
     inkscape:window-maximized="1"
     inkscape:current-layer="g10" /><g
     id="g10"
     inkscape:groupmode="layer"
     inkscape:label="loterias-logo"
     transform="matrix(1.3333333,0,0,-1.3333333,-773.70623,466.22707)"><path
       d="m 580.27969,349.67031 122.964,0 0,-24.507 -122.964,0 z"
       style="fill:#f39323;fill-opacity:1;fill-rule:nonzero;stroke:none"
       id="path1514"
       inkscape:connector-curvature="0" /><g
       id="g1516"
       transform="translate(-497.62031,164.70531)"><g
         id="g1518"
         clip-path="url(#clipPath1522)"><g
           id="g1524"
           transform="translate(1097.9601,179.0941)"><path
             d="M 0,0 C 0,1.526 -1.283,2.808 -2.81,2.808 -4.337,2.808 -5.619,1.526 -5.619,0 l 0,-0.306 -0.305,0 c -1.528,0 -2.81,-1.282 -2.81,-2.87 0,-1.527 1.282,-2.809 2.81,-2.809 l 5.924,0 z"
             style="fill:#ffffff;fill-opacity:1;fill-rule:nonzero;stroke:none"
             id="path1526"
             inkscape:connector-curvature="0" /></g><g
           id="g1528"
           transform="translate(1097.9601,166.3315)"><path
             d="m 0,0 c 0,-1.529 -1.283,-2.809 -2.81,-2.809 -1.527,0 -2.809,1.28 -2.809,2.809 l 0,0.304 -0.305,0 c -1.528,0 -2.81,1.284 -2.81,2.811 0,1.525 1.282,2.807 2.81,2.807 l 5.924,0 z"
             style="fill:#fcd6ae;fill-opacity:1;fill-rule:nonzero;stroke:none"
             id="path1530"
             inkscape:connector-curvature="0" /></g><g
           id="g1532"
           transform="translate(1098.8762,179.0941)"><path
             d="M 0,0 C 0,1.526 1.221,2.808 2.809,2.808 4.335,2.808 5.617,1.526 5.617,0 l 0,-0.306 0.306,0 c 1.526,0 2.808,-1.282 2.808,-2.87 0,-1.527 -1.282,-2.809 -2.808,-2.809 l -5.923,0 z"
             style="fill:#fcd6ae;fill-opacity:1;fill-rule:nonzero;stroke:none"
             id="path1534"
             inkscape:connector-curvature="0" /></g><g
           id="g1536"
           transform="translate(1098.8762,166.3315)"><path
             d="m 0,0 c 0,-1.529 1.221,-2.809 2.809,-2.809 1.526,0 2.808,1.28 2.808,2.809 l 0,0.304 0.306,0 c 1.526,0 2.808,1.284 2.808,2.811 0,1.525 -1.282,2.807 -2.808,2.807 L 0,5.922 Z"
             style="fill:#ffffff;fill-opacity:1;fill-rule:nonzero;stroke:none"
             id="path1538"
             inkscape:connector-curvature="0" /></g></g></g><g
       id="g1540"
       transform="translate(614.58179,331.52811)"><path
         d="m 0,0 1.896,11.813 3.318,0 -1.422,-8.902 2.437,0 L 5.755,0 Z"
         style="fill:#ffffff;fill-opacity:1;fill-rule:nonzero;stroke:none"
         id="path1542"
         inkscape:connector-curvature="0" /></g><g
       id="g1544"
       transform="translate(-497.62031,164.70531)"><g
         id="g1546"
         clip-path="url(#clipPath1550)"><g
           id="g1552"
           transform="translate(1123.5425,169.7664)"><path
             d="m 0,0 c 0.169,0.169 0.338,0.475 0.475,0.881 0.169,0.507 0.304,1.151 0.438,1.895 0.102,0.744 0.169,1.455 0.169,2.1 0,0.439 -0.067,0.778 -0.169,0.98 C 0.779,6.06 0.609,6.162 0.373,6.162 -0.258,6.162 -0.571,5.605 -0.71,5.045 -0.913,4.503 -1.05,3.859 -1.151,3.081 -1.286,2.336 -1.32,1.625 -1.32,0.982 c 0,-0.44 0.034,-0.746 0.169,-0.947 0.101,-0.204 0.305,-0.306 0.575,-0.306 0.195,0 0.481,0.081 0.576,0.271 M 0.711,9.073 C 1.829,9.073 2.742,8.7 3.419,7.889 4.095,7.11 4.435,6.025 4.435,4.638 4.435,3.52 4.266,2.472 3.995,1.456 3.723,0.406 3.318,-0.44 2.844,-1.184 2.37,-1.827 1.829,-2.336 1.219,-2.675 0.58,-3.045 -0.216,-3.182 -0.948,-3.182 c -1.117,0 -1.998,0.406 -2.674,1.219 -0.71,0.779 -1.05,1.861 -1.05,3.217 0,1.082 0.17,2.166 0.441,3.215 0.27,1.016 0.677,1.895 1.151,2.606 0.474,0.677 1.015,1.185 1.659,1.524 0.642,0.35 1.408,0.474 2.132,0.474"
             style="fill:#ffffff;fill-opacity:1;fill-rule:nonzero;stroke:none"
             id="path1554"
             inkscape:connector-curvature="0" /></g><g
           id="g1556"
           transform="translate(1136.2709,173.1865)"><path
             d="m 0,0 c -0.136,-0.712 -0.169,-1.422 -0.169,-2.166 0,-0.577 0.033,-1.118 0.169,-1.593 0.169,-0.642 0.44,-1.184 0.846,-1.624 0.677,-0.814 1.523,-1.219 2.64,-1.219 0.733,0 1.528,0.134 2.167,0.507 0.609,0.339 1.185,0.848 1.625,1.491 0.508,0.744 0.88,1.589 1.151,2.639 0.102,0.306 0.168,0.611 0.202,0.915 C 8.8,-0.306 8.868,0.439 8.868,1.218 8.868,1.861 8.8,2.402 8.631,2.911 8.497,3.52 8.225,4.028 7.852,4.468 7.176,5.28 6.295,5.653 5.145,5.653 4.404,5.653 3.681,5.512 3.013,5.179 2.369,4.839 1.861,4.332 1.387,3.655 0.914,2.944 0.508,2.065 0.237,1.049 0.135,0.677 0.068,0.338 0,0 M 3.723,1.625 C 3.863,2.184 4.177,2.742 4.807,2.742 5.044,2.742 5.213,2.64 5.348,2.436 5.45,2.234 5.518,1.895 5.518,1.456 5.518,0.811 5.45,0.1 5.348,-0.644 5.213,-1.388 5.077,-2.032 4.909,-2.54 4.772,-2.945 4.603,-3.251 4.434,-3.42 4.341,-3.612 4.052,-3.691 3.858,-3.691 c -0.27,0 -0.474,0.102 -0.574,0.305 -0.137,0.202 -0.171,0.508 -0.171,0.948 0,0.643 0.034,1.353 0.171,2.099 0.1,0.778 0.27,1.421 0.439,1.964"
             style="fill:#ffffff;fill-opacity:1;fill-rule:nonzero;stroke:none"
             id="path1558"
             inkscape:connector-curvature="0" /></g></g></g><g
       id="g1560"
       transform="translate(638.37959,340.32801)"><path
         d="m 0,0 -1.963,0 -1.388,-8.8 -3.317,0 1.387,8.8 -1.963,0 0.474,3.013 7.244,0 z"
         style="fill:#ffffff;fill-opacity:1;fill-rule:nonzero;stroke:none"
         id="path1562"
         inkscape:connector-curvature="0" /></g><g
       id="g1564"
       transform="translate(659.57009,343.34081)"><path
         d="M 0,0 -3.859,0 -5.856,-6.229 -5.89,0 l -3.859,0 -2.539,-10.9 -0.202,-0.913 0.202,0 2.64,0 1.659,8.766 0.169,-8.766 2.234,0 2.776,8.733 -1.083,-8.733 2.878,0 z"
         style="fill:#ffffff;fill-opacity:1;fill-rule:nonzero;stroke:none"
         id="path1566"
         inkscape:connector-curvature="0" /></g><g
       id="g1568"
       transform="translate(665.02009,335.65801)"><path
         d="M 0,0 0.035,4.366 -1.321,0 Z m -5.923,-4.13 4.435,11.813 3.925,0 0.813,-11.813 -3.317,0 0,1.725 -1.964,0 -0.508,-1.725 z"
         style="fill:#ffffff;fill-opacity:1;fill-rule:nonzero;stroke:none"
         id="path1570"
         inkscape:connector-curvature="0" /></g><g
       id="g1572"
       transform="translate(676.83539,331.52811)"><path
         d="M 0,0 -3.047,0 -4.165,6.126 -5.214,0 l -2.809,0 1.894,11.813 3.048,0 1.049,-6.364 1.118,6.364 2.775,0 z"
         style="fill:#ffffff;fill-opacity:1;fill-rule:nonzero;stroke:none"
         id="path1574"
         inkscape:connector-curvature="0" /></g><g
       id="g1576"
       transform="translate(682.31899,331.52811)"><path
         d="m 0,0 3.385,0 0.508,1.725 1.964,0 L 5.822,0 9.173,0 8.326,11.813 l -3.891,0 z M 4.569,4.13 5.959,8.496 5.89,4.13 Z"
         style="fill:#ffffff;fill-opacity:1;fill-rule:nonzero;stroke:none"
         id="path1578"
         inkscape:connector-curvature="0" /></g><g
       id="g1580"
       transform="translate(681.77779,331.52811)"><path
         d="m 0,0 -3.284,0 1.86,11.813 3.319,0 z"
         style="fill:#ffffff;fill-opacity:1;fill-rule:nonzero;stroke:none"
         id="path1582"
         inkscape:connector-curvature="0" /></g></g></svg>