<?xml version="1.0" encoding="UTF-8" standalone="no"?>
<!-- Created with Inkscape (http://www.inkscape.org/) -->

<svg
   xmlns:dc="http://purl.org/dc/elements/1.1/"
   xmlns:cc="http://creativecommons.org/ns#"
   xmlns:rdf="http://www.w3.org/1999/02/22-rdf-syntax-ns#"
   xmlns:svg="http://www.w3.org/2000/svg"
   xmlns="http://www.w3.org/2000/svg"
   xmlns:sodipodi="http://sodipodi.sourceforge.net/DTD/sodipodi-0.dtd"
   xmlns:inkscape="http://www.inkscape.org/namespaces/inkscape"
   version="1.1"
   id="svg2"
   xml:space="preserve"
   width="163.12799"
   height="32.901333"
   viewBox="0 0 163.12799 32.901333"
   sodipodi:docname="logo-lotofacil.svg"
   inkscape:version="0.91 r13725"><metadata
     id="metadata8"><rdf:RDF><cc:Work
         rdf:about=""><dc:format>image/svg+xml</dc:format><dc:type
           rdf:resource="http://purl.org/dc/dcmitype/StillImage" /><dc:title></dc:title></cc:Work></rdf:RDF></metadata><defs
     id="defs6"><clipPath
       clipPathUnits="userSpaceOnUse"
       id="clipPath20"><path
         d="m 0,708.661 1275.59,0 L 1275.59,0 0,0 Z"
         id="path18"
         inkscape:connector-curvature="0" /></clipPath><clipPath
       clipPathUnits="userSpaceOnUse"
       id="clipPath58"><path
         d="m 141.733,0 1105.51,0 0,708.661 -1105.51,0 z"
         id="path56"
         inkscape:connector-curvature="0" /></clipPath><clipPath
       clipPathUnits="userSpaceOnUse"
       id="clipPath132"><path
         d="m 141.733,0 1105.51,0 0,708.661 -1105.51,0 z"
         id="path130"
         inkscape:connector-curvature="0" /></clipPath><clipPath
       clipPathUnits="userSpaceOnUse"
       id="clipPath750"><path
         d="m 141.733,0 1105.51,0 0,708.661 -1105.51,0 z"
         id="path748"
         inkscape:connector-curvature="0" /></clipPath><clipPath
       clipPathUnits="userSpaceOnUse"
       id="clipPath1006"><path
         d="m 141.733,0 1105.51,0 0,708.661 -1105.51,0 z"
         id="path1004"
         inkscape:connector-curvature="0" /></clipPath><clipPath
       clipPathUnits="userSpaceOnUse"
       id="clipPath1042"><path
         d="m 815.478,158.644 228.672,0 0,-229.8158 -228.672,0 z"
         id="path1040"
         inkscape:connector-curvature="0" /></clipPath><clipPath
       clipPathUnits="userSpaceOnUse"
       id="clipPath1046"><path
         d="m 815.478,-71.172 228.674,0 0,229.816 -228.674,0 z"
         id="path1044"
         inkscape:connector-curvature="0" /></clipPath><clipPath
       clipPathUnits="userSpaceOnUse"
       id="clipPath1092"><path
         d="m 1017.525,444.359 47.65,0 0,79.37 -47.65,0 z"
         id="path1090"
         inkscape:connector-curvature="0" /></clipPath><clipPath
       clipPathUnits="userSpaceOnUse"
       id="clipPath1232"><path
         d="m 141.733,0 1105.51,0 0,708.661 -1105.51,0 z"
         id="path1230"
         inkscape:connector-curvature="0" /></clipPath><clipPath
       clipPathUnits="userSpaceOnUse"
       id="clipPath1250"><path
         d="m 141.733,0 1105.51,0 0,708.661 -1105.51,0 z"
         id="path1248"
         inkscape:connector-curvature="0" /></clipPath><clipPath
       clipPathUnits="userSpaceOnUse"
       id="clipPath1280"><path
         d="m 141.733,0 1105.51,0 0,708.661 -1105.51,0 z"
         id="path1278"
         inkscape:connector-curvature="0" /></clipPath><clipPath
       clipPathUnits="userSpaceOnUse"
       id="clipPath1336"><path
         d="m 141.733,0 1105.51,0 0,708.661 -1105.51,0 z"
         id="path1334"
         inkscape:connector-curvature="0" /></clipPath><clipPath
       clipPathUnits="userSpaceOnUse"
       id="clipPath1362"><path
         d="m 141.733,0 1105.51,0 0,708.661 -1105.51,0 z"
         id="path1360"
         inkscape:connector-curvature="0" /></clipPath><clipPath
       clipPathUnits="userSpaceOnUse"
       id="clipPath1382"><path
         d="m 141.733,0 1105.51,0 0,708.661 -1105.51,0 z"
         id="path1380"
         inkscape:connector-curvature="0" /></clipPath><clipPath
       clipPathUnits="userSpaceOnUse"
       id="clipPath1406"><path
         d="m 141.733,0 1105.51,0 0,708.661 -1105.51,0 z"
         id="path1404"
         inkscape:connector-curvature="0" /></clipPath><clipPath
       clipPathUnits="userSpaceOnUse"
       id="clipPath1426"><path
         d="m 141.733,0 1105.51,0 0,708.661 -1105.51,0 z"
         id="path1424"
         inkscape:connector-curvature="0" /></clipPath><clipPath
       clipPathUnits="userSpaceOnUse"
       id="clipPath1452"><path
         d="m 141.733,0 1105.51,0 0,708.661 -1105.51,0 z"
         id="path1450"
         inkscape:connector-curvature="0" /></clipPath><clipPath
       clipPathUnits="userSpaceOnUse"
       id="clipPath1484"><path
         d="m 141.733,0 1105.51,0 0,708.661 -1105.51,0 z"
         id="path1482"
         inkscape:connector-curvature="0" /></clipPath><clipPath
       clipPathUnits="userSpaceOnUse"
       id="clipPath1500"><path
         d="m 141.733,0 1105.51,0 0,708.661 -1105.51,0 z"
         id="path1498"
         inkscape:connector-curvature="0" /></clipPath><clipPath
       clipPathUnits="userSpaceOnUse"
       id="clipPath1522"><path
         d="m 141.733,0 1105.51,0 0,708.661 -1105.51,0 z"
         id="path1520"
         inkscape:connector-curvature="0" /></clipPath><clipPath
       clipPathUnits="userSpaceOnUse"
       id="clipPath1550"><path
         d="m 141.733,0 1105.51,0 0,708.661 -1105.51,0 z"
         id="path1548"
         inkscape:connector-curvature="0" /></clipPath><clipPath
       clipPathUnits="userSpaceOnUse"
       id="clipPath1592"><path
         d="m 141.733,0 1105.51,0 0,708.661 -1105.51,0 z"
         id="path1590"
         inkscape:connector-curvature="0" /></clipPath><clipPath
       clipPathUnits="userSpaceOnUse"
       id="clipPath1624"><path
         d="m 141.733,0 1105.51,0 0,708.661 -1105.51,0 z"
         id="path1622"
         inkscape:connector-curvature="0" /></clipPath><clipPath
       clipPathUnits="userSpaceOnUse"
       id="clipPath1640"><path
         d="m 141.733,0 1105.51,0 0,708.661 -1105.51,0 z"
         id="path1638"
         inkscape:connector-curvature="0" /></clipPath><clipPath
       clipPathUnits="userSpaceOnUse"
       id="clipPath1668"><path
         d="m 141.733,0 1105.51,0 0,708.661 -1105.51,0 z"
         id="path1666"
         inkscape:connector-curvature="0" /></clipPath><clipPath
       clipPathUnits="userSpaceOnUse"
       id="clipPath1696"><path
         d="m 141.733,0 1105.51,0 0,708.661 -1105.51,0 z"
         id="path1694"
         inkscape:connector-curvature="0" /></clipPath><clipPath
       clipPathUnits="userSpaceOnUse"
       id="clipPath1722"><path
         d="m 141.733,0 1105.51,0 0,708.661 -1105.51,0 z"
         id="path1720"
         inkscape:connector-curvature="0" /></clipPath><clipPath
       clipPathUnits="userSpaceOnUse"
       id="clipPath1752"><path
         d="m 141.733,0 1105.51,0 0,708.661 -1105.51,0 z"
         id="path1750"
         inkscape:connector-curvature="0" /></clipPath><clipPath
       clipPathUnits="userSpaceOnUse"
       id="clipPath1808"><path
         d="m 141.733,0 1105.51,0 0,708.661 -1105.51,0 z"
         id="path1806"
         inkscape:connector-curvature="0" /></clipPath><clipPath
       clipPathUnits="userSpaceOnUse"
       id="clipPath1830"><path
         d="m 141.733,0 1105.51,0 0,708.661 -1105.51,0 z"
         id="path1828"
         inkscape:connector-curvature="0" /></clipPath><clipPath
       clipPathUnits="userSpaceOnUse"
       id="clipPath1874"><path
         d="m 141.733,0 1105.51,0 0,708.661 -1105.51,0 z"
         id="path1872"
         inkscape:connector-curvature="0" /></clipPath></defs><sodipodi:namedview
     pagecolor="#ffffff"
     bordercolor="#666666"
     borderopacity="1"
     objecttolerance="10"
     gridtolerance="10"
     guidetolerance="10"
     inkscape:pageopacity="0"
     inkscape:pageshadow="2"
     inkscape:window-width="1317"
     inkscape:window-height="744"
     id="namedview4"
     showgrid="false"
     fit-margin-top="0"
     fit-margin-left="0"
     fit-margin-right="0"
     fit-margin-bottom="0"
     inkscape:zoom="1.210672"
     inkscape:cx="156.39834"
     inkscape:cy="111.09719"
     inkscape:window-x="49"
     inkscape:window-y="24"
     inkscape:window-maximized="1"
     inkscape:current-layer="g10" /><g
     id="g10"
     inkscape:groupmode="layer"
     inkscape:label="loterias-logo"
     transform="matrix(1.3333333,0,0,-1.3333333,-605.29424,356.0644)"><path
       d="m 453.97069,267.04831 122.346,0 0,-24.676 -122.346,0 z"
       style="fill:#a7348b;fill-opacity:1;fill-rule:nonzero;stroke:none"
       id="path1354"
       inkscape:connector-curvature="0" /><g
       id="g1356"
       transform="translate(-497.62031,164.70531)"><g
         id="g1358"
         clip-path="url(#clipPath1362)"><g
           id="g1364"
           transform="translate(999.9292,91.6339)"><path
             d="m 0,0 c -0.21,-0.578 -0.369,-1.261 -0.473,-2.05 -0.157,-0.788 -0.21,-1.576 -0.21,-2.258 0,-0.473 0.053,-0.789 0.21,-1 0.104,-0.209 0.316,-0.315 0.579,-0.315 0.648,0 0.962,0.695 1.156,1.209 0.157,0.577 0.314,1.208 0.42,1.996 0.157,0.788 0.21,1.524 0.21,2.26 0,0.473 -0.106,0.789 -0.21,1.051 C 1.576,1.103 1.366,1.209 1.156,1.209 0.485,1.209 0.149,0.59 0,0 m -0.263,-8.724 c -1.156,0 -2.155,0.421 -2.838,1.262 -0.735,0.893 -1.102,2.049 -1.102,3.467 0,1.157 0.157,2.26 0.472,3.364 0.264,1.103 0.683,2.049 1.209,2.785 0.524,0.683 1.103,1.261 1.733,1.575 0.628,0.394 1.517,0.579 2.259,0.579 1.211,0 2.208,-0.472 2.89,-1.313 0.736,-0.841 1.052,-1.944 1.052,-3.416 0,-1.156 -0.157,-2.312 -0.42,-3.363 C 4.676,-4.888 4.257,-5.832 3.731,-6.569 3.258,-7.305 2.681,-7.83 1.998,-8.198 1.276,-8.559 0.536,-8.724 -0.263,-8.724"
             style="fill:#ffffff;fill-opacity:1;fill-rule:nonzero;stroke:none"
             id="path1366"
             inkscape:connector-curvature="0" /></g></g></g><g
       id="g1368"
       transform="translate(491.06439,247.87821)"><path
         d="m 0,0 1.996,12.506 3.467,0 -1.469,-9.405 2.574,0 L 6.095,0 Z"
         style="fill:#ffffff;fill-opacity:1;fill-rule:nonzero;stroke:none"
         id="path1370"
         inkscape:connector-curvature="0" /></g><g
       id="g1372"
       transform="translate(516.23409,257.23191)"><path
         d="m 0,0 -2.051,0 -1.523,-9.354 -3.467,0 1.47,9.354 -2.102,0 0.526,3.153 7.673,0 z"
         style="fill:#ffffff;fill-opacity:1;fill-rule:nonzero;stroke:none"
         id="path1374"
         inkscape:connector-curvature="0" /></g><g
       id="g1376"
       transform="translate(-497.62031,164.70531)"><g
         id="g1378"
         clip-path="url(#clipPath1382)"><g
           id="g1384"
           transform="translate(1023.1542,87.8503)"><path
             d="m 0,0 c -0.316,-1.104 -0.734,-2.049 -1.26,-2.786 -0.473,-0.736 -1.052,-1.261 -1.735,-1.628 -0.721,-0.361 -1.459,-0.526 -2.258,-0.526 -1.209,0 -2.155,0.421 -2.838,1.261 -0.42,0.526 -0.736,1.103 -0.895,1.786 -0.157,0.473 -0.21,1.052 -0.21,1.682 0,2.083 0.459,4.434 1.682,6.148 0.473,0.683 1.105,1.262 1.735,1.576 0.628,0.393 1.516,0.579 2.261,0.579 1.206,0 2.152,-0.473 2.888,-1.314 C -0.104,6.147 0.212,5.36 0.369,4.36 0.42,4.045 0.42,3.73 0.42,3.362 0.42,2.223 0.279,1.108 0,0 m -3.782,-0.631 c 0.208,0.578 0.367,1.209 0.471,1.997 0.106,0.788 0.159,1.524 0.159,2.259 0,0.473 -0.053,0.789 -0.159,1.051 -0.104,0.21 -0.314,0.316 -0.576,0.316 -0.675,0 -0.955,-0.669 -1.156,-1.208 -0.159,-0.579 -0.316,-1.261 -0.473,-2.05 -0.106,-0.788 -0.157,-1.576 -0.157,-2.259 0,-0.473 0.051,-0.789 0.208,-1 0.106,-0.209 0.316,-0.315 0.579,-0.315 0.64,0 0.972,0.685 1.104,1.209"
             style="fill:#ffffff;fill-opacity:1;fill-rule:nonzero;stroke:none"
             id="path1386"
             inkscape:connector-curvature="0" /></g></g></g><g
       id="g1388"
       transform="translate(533.52279,257.33701)"><path
         d="m 0,0 0.524,3.048 -6.252,0 -1.947,-12.507 0.055,0 3.415,0 0.735,4.73 2.365,0 0.473,2.942 -2.365,0 L -2.683,0 Z"
         style="fill:#ffffff;fill-opacity:1;fill-rule:nonzero;stroke:none"
         id="path1390"
         inkscape:connector-curvature="0" /></g><g
       id="g1392"
       transform="translate(539.30209,261.59331)"><path
         d="m 0,0 -1.366,0 0.997,2.68 2.261,0 z"
         style="fill:#ffffff;fill-opacity:1;fill-rule:nonzero;stroke:none"
         id="path1394"
         inkscape:connector-curvature="0" /></g><g
       id="g1396"
       transform="translate(538.14619,252.23961)"><path
         d="M 0,0 0.051,4.624 -1.421,0 Z m -6.252,-4.361 4.676,12.506 4.151,0 0.892,-12.506 -3.573,0 0.053,1.839 -2.102,0 -0.526,-1.839 z"
         style="fill:#ffffff;fill-opacity:1;fill-rule:nonzero;stroke:none"
         id="path1398"
         inkscape:connector-curvature="0" /></g><g
       id="g1400"
       transform="translate(-497.62031,164.70531)"><g
         id="g1402"
         clip-path="url(#clipPath1406)"><g
           id="g1408"
           transform="translate(1047.6409,92.4747)"><path
             d="m 0,0 c -0.251,0.168 -0.795,0.314 -1.103,0.314 -0.84,0 -1.472,-0.42 -1.998,-1.208 -0.473,-0.788 -0.733,-1.787 -0.733,-3.1 0,-0.841 0.157,-1.418 0.472,-1.839 0.504,-0.809 1.65,-0.611 2.416,-0.421 l -0.577,-2.995 c -0.487,-0.24 -1.196,-0.316 -1.735,-0.316 -1.418,0 -2.468,0.421 -3.204,1.262 -0.789,0.841 -1.158,1.998 -1.158,3.574 0,2.468 0.579,4.413 1.735,5.937 1.105,1.471 2.627,2.26 4.466,2.26 0.652,0 1.376,-0.16 1.996,-0.367 z"
             style="fill:#ffffff;fill-opacity:1;fill-rule:nonzero;stroke:none"
             id="path1410"
             inkscape:connector-curvature="0" /></g></g></g><g
       id="g1412"
       transform="translate(553.22719,247.87821)"><path
         d="m 0,0 -3.521,0 1.994,12.506 3.523,0 z"
         style="fill:#ffffff;fill-opacity:1;fill-rule:nonzero;stroke:none"
         id="path1414"
         inkscape:connector-curvature="0" /></g><g
       id="g1416"
       transform="translate(556.74769,260.38451)"><path
         d="m 0,0 3.518,0 -1.524,-9.406 2.576,0 -0.473,-3.1 -6.095,0 z"
         style="fill:#ffffff;fill-opacity:1;fill-rule:nonzero;stroke:none"
         id="path1418"
         inkscape:connector-curvature="0" /></g><g
       id="g1420"
       transform="translate(-497.62031,164.70531)"><g
         id="g1422"
         clip-path="url(#clipPath1426)"><g
           id="g1428"
           transform="translate(974.3437,96.4314)"><path
             d="m 0,0 c 0,1.537 -1.291,2.828 -2.828,2.828 -1.539,0 -2.83,-1.291 -2.83,-2.828 l 0,-0.308 -0.306,0 c -1.539,0 -2.829,-1.291 -2.829,-2.89 0,-1.537 1.29,-2.829 2.829,-2.829 l 5.964,0 z"
             style="fill:#ffffff;fill-opacity:1;fill-rule:nonzero;stroke:none"
             id="path1430"
             inkscape:connector-curvature="0" /></g><g
           id="g1432"
           transform="translate(974.3437,83.5797)"><path
             d="m 0,0 c 0,-1.538 -1.291,-2.829 -2.828,-2.829 -1.539,0 -2.83,1.291 -2.83,2.829 l 0,0.307 -0.306,0 c -1.539,0 -2.829,1.292 -2.829,2.829 0,1.537 1.29,2.829 2.829,2.829 l 5.964,0 z"
             style="fill:#e4b9d7;fill-opacity:1;fill-rule:nonzero;stroke:none"
             id="path1434"
             inkscape:connector-curvature="0" /></g><g
           id="g1436"
           transform="translate(975.2662,96.4314)"><path
             d="M 0,0 C 0,1.537 1.229,2.828 2.828,2.828 4.364,2.828 5.657,1.537 5.657,0 l 0,-0.308 0.308,0 c 1.536,0 2.826,-1.291 2.826,-2.89 0,-1.537 -1.29,-2.829 -2.826,-2.829 l -5.965,0 z"
             style="fill:#e4b9d7;fill-opacity:1;fill-rule:nonzero;stroke:none"
             id="path1438"
             inkscape:connector-curvature="0" /></g><g
           id="g1440"
           transform="translate(975.2662,83.5797)"><path
             d="m 0,0 c 0,-1.538 1.229,-2.829 2.828,-2.829 1.536,0 2.829,1.291 2.829,2.829 l 0,0.307 0.308,0 c 1.536,0 2.826,1.292 2.826,2.829 0,1.537 -1.29,2.829 -2.826,2.829 L 0,5.965 Z"
             style="fill:#ffffff;fill-opacity:1;fill-rule:nonzero;stroke:none"
             id="path1442"
             inkscape:connector-curvature="0" /></g></g></g></g></svg>