<?xml version="1.0" encoding="UTF-8" standalone="no"?>
<!-- Created with Inkscape (http://www.inkscape.org/) -->

<svg
   xmlns:dc="http://purl.org/dc/elements/1.1/"
   xmlns:cc="http://creativecommons.org/ns#"
   xmlns:rdf="http://www.w3.org/1999/02/22-rdf-syntax-ns#"
   xmlns:svg="http://www.w3.org/2000/svg"
   xmlns="http://www.w3.org/2000/svg"
   xmlns:sodipodi="http://sodipodi.sourceforge.net/DTD/sodipodi-0.dtd"
   xmlns:inkscape="http://www.inkscape.org/namespaces/inkscape"
   version="1.1"
   id="svg2"
   xml:space="preserve"
   width="163.20267"
   height="32.638664"
   viewBox="0 0 163.20266 32.638665"
   sodipodi:docname="loterias-quina.svg"
   inkscape:version="0.91 r13725"><metadata
     id="metadata8"><rdf:RDF><cc:Work
         rdf:about=""><dc:format>image/svg+xml</dc:format><dc:type
           rdf:resource="http://purl.org/dc/dcmitype/StillImage" /><dc:title></dc:title></cc:Work></rdf:RDF></metadata><defs
     id="defs6"><clipPath
       clipPathUnits="userSpaceOnUse"
       id="clipPath20"><path
         d="m 0,708.661 1275.59,0 L 1275.59,0 0,0 Z"
         id="path18"
         inkscape:connector-curvature="0" /></clipPath><clipPath
       clipPathUnits="userSpaceOnUse"
       id="clipPath58"><path
         d="m 141.733,0 1105.51,0 0,708.661 -1105.51,0 z"
         id="path56"
         inkscape:connector-curvature="0" /></clipPath><clipPath
       clipPathUnits="userSpaceOnUse"
       id="clipPath132"><path
         d="m 141.733,0 1105.51,0 0,708.661 -1105.51,0 z"
         id="path130"
         inkscape:connector-curvature="0" /></clipPath><clipPath
       clipPathUnits="userSpaceOnUse"
       id="clipPath750"><path
         d="m 141.733,0 1105.51,0 0,708.661 -1105.51,0 z"
         id="path748"
         inkscape:connector-curvature="0" /></clipPath><clipPath
       clipPathUnits="userSpaceOnUse"
       id="clipPath1006"><path
         d="m 141.733,0 1105.51,0 0,708.661 -1105.51,0 z"
         id="path1004"
         inkscape:connector-curvature="0" /></clipPath><clipPath
       clipPathUnits="userSpaceOnUse"
       id="clipPath1042"><path
         d="m 815.478,158.644 228.672,0 0,-229.8158 -228.672,0 z"
         id="path1040"
         inkscape:connector-curvature="0" /></clipPath><clipPath
       clipPathUnits="userSpaceOnUse"
       id="clipPath1046"><path
         d="m 815.478,-71.172 228.674,0 0,229.816 -228.674,0 z"
         id="path1044"
         inkscape:connector-curvature="0" /></clipPath><clipPath
       clipPathUnits="userSpaceOnUse"
       id="clipPath1092"><path
         d="m 1017.525,444.359 47.65,0 0,79.37 -47.65,0 z"
         id="path1090"
         inkscape:connector-curvature="0" /></clipPath><clipPath
       clipPathUnits="userSpaceOnUse"
       id="clipPath1232"><path
         d="m 141.733,0 1105.51,0 0,708.661 -1105.51,0 z"
         id="path1230"
         inkscape:connector-curvature="0" /></clipPath><clipPath
       clipPathUnits="userSpaceOnUse"
       id="clipPath1250"><path
         d="m 141.733,0 1105.51,0 0,708.661 -1105.51,0 z"
         id="path1248"
         inkscape:connector-curvature="0" /></clipPath><clipPath
       clipPathUnits="userSpaceOnUse"
       id="clipPath1280"><path
         d="m 141.733,0 1105.51,0 0,708.661 -1105.51,0 z"
         id="path1278"
         inkscape:connector-curvature="0" /></clipPath><clipPath
       clipPathUnits="userSpaceOnUse"
       id="clipPath1336"><path
         d="m 141.733,0 1105.51,0 0,708.661 -1105.51,0 z"
         id="path1334"
         inkscape:connector-curvature="0" /></clipPath><clipPath
       clipPathUnits="userSpaceOnUse"
       id="clipPath1362"><path
         d="m 141.733,0 1105.51,0 0,708.661 -1105.51,0 z"
         id="path1360"
         inkscape:connector-curvature="0" /></clipPath><clipPath
       clipPathUnits="userSpaceOnUse"
       id="clipPath1382"><path
         d="m 141.733,0 1105.51,0 0,708.661 -1105.51,0 z"
         id="path1380"
         inkscape:connector-curvature="0" /></clipPath><clipPath
       clipPathUnits="userSpaceOnUse"
       id="clipPath1406"><path
         d="m 141.733,0 1105.51,0 0,708.661 -1105.51,0 z"
         id="path1404"
         inkscape:connector-curvature="0" /></clipPath><clipPath
       clipPathUnits="userSpaceOnUse"
       id="clipPath1426"><path
         d="m 141.733,0 1105.51,0 0,708.661 -1105.51,0 z"
         id="path1424"
         inkscape:connector-curvature="0" /></clipPath><clipPath
       clipPathUnits="userSpaceOnUse"
       id="clipPath1452"><path
         d="m 141.733,0 1105.51,0 0,708.661 -1105.51,0 z"
         id="path1450"
         inkscape:connector-curvature="0" /></clipPath><clipPath
       clipPathUnits="userSpaceOnUse"
       id="clipPath1484"><path
         d="m 141.733,0 1105.51,0 0,708.661 -1105.51,0 z"
         id="path1482"
         inkscape:connector-curvature="0" /></clipPath><clipPath
       clipPathUnits="userSpaceOnUse"
       id="clipPath1500"><path
         d="m 141.733,0 1105.51,0 0,708.661 -1105.51,0 z"
         id="path1498"
         inkscape:connector-curvature="0" /></clipPath><clipPath
       clipPathUnits="userSpaceOnUse"
       id="clipPath1522"><path
         d="m 141.733,0 1105.51,0 0,708.661 -1105.51,0 z"
         id="path1520"
         inkscape:connector-curvature="0" /></clipPath><clipPath
       clipPathUnits="userSpaceOnUse"
       id="clipPath1550"><path
         d="m 141.733,0 1105.51,0 0,708.661 -1105.51,0 z"
         id="path1548"
         inkscape:connector-curvature="0" /></clipPath><clipPath
       clipPathUnits="userSpaceOnUse"
       id="clipPath1592"><path
         d="m 141.733,0 1105.51,0 0,708.661 -1105.51,0 z"
         id="path1590"
         inkscape:connector-curvature="0" /></clipPath><clipPath
       clipPathUnits="userSpaceOnUse"
       id="clipPath1624"><path
         d="m 141.733,0 1105.51,0 0,708.661 -1105.51,0 z"
         id="path1622"
         inkscape:connector-curvature="0" /></clipPath><clipPath
       clipPathUnits="userSpaceOnUse"
       id="clipPath1640"><path
         d="m 141.733,0 1105.51,0 0,708.661 -1105.51,0 z"
         id="path1638"
         inkscape:connector-curvature="0" /></clipPath><clipPath
       clipPathUnits="userSpaceOnUse"
       id="clipPath1668"><path
         d="m 141.733,0 1105.51,0 0,708.661 -1105.51,0 z"
         id="path1666"
         inkscape:connector-curvature="0" /></clipPath><clipPath
       clipPathUnits="userSpaceOnUse"
       id="clipPath1696"><path
         d="m 141.733,0 1105.51,0 0,708.661 -1105.51,0 z"
         id="path1694"
         inkscape:connector-curvature="0" /></clipPath><clipPath
       clipPathUnits="userSpaceOnUse"
       id="clipPath1722"><path
         d="m 141.733,0 1105.51,0 0,708.661 -1105.51,0 z"
         id="path1720"
         inkscape:connector-curvature="0" /></clipPath><clipPath
       clipPathUnits="userSpaceOnUse"
       id="clipPath1752"><path
         d="m 141.733,0 1105.51,0 0,708.661 -1105.51,0 z"
         id="path1750"
         inkscape:connector-curvature="0" /></clipPath><clipPath
       clipPathUnits="userSpaceOnUse"
       id="clipPath1808"><path
         d="m 141.733,0 1105.51,0 0,708.661 -1105.51,0 z"
         id="path1806"
         inkscape:connector-curvature="0" /></clipPath><clipPath
       clipPathUnits="userSpaceOnUse"
       id="clipPath1830"><path
         d="m 141.733,0 1105.51,0 0,708.661 -1105.51,0 z"
         id="path1828"
         inkscape:connector-curvature="0" /></clipPath><clipPath
       clipPathUnits="userSpaceOnUse"
       id="clipPath1874"><path
         d="m 141.733,0 1105.51,0 0,708.661 -1105.51,0 z"
         id="path1872"
         inkscape:connector-curvature="0" /></clipPath></defs><sodipodi:namedview
     pagecolor="#ffffff"
     bordercolor="#666666"
     borderopacity="1"
     objecttolerance="10"
     gridtolerance="10"
     guidetolerance="10"
     inkscape:pageopacity="0"
     inkscape:pageshadow="2"
     inkscape:window-width="1317"
     inkscape:window-height="744"
     id="namedview4"
     showgrid="false"
     fit-margin-top="0"
     fit-margin-left="0"
     fit-margin-right="0"
     fit-margin-bottom="0"
     inkscape:zoom="1.7121488"
     inkscape:cx="112.10333"
     inkscape:cy="-32.376959"
     inkscape:window-x="49"
     inkscape:window-y="24"
     inkscape:window-maximized="1"
     inkscape:current-layer="g10" /><g
     id="g10"
     inkscape:groupmode="layer"
     inkscape:label="loterias-logo"
     transform="matrix(1.3333333,0,0,-1.3333333,-605.22624,466.22307)"><path
       d="m 453.91969,349.66731 122.402,0 0,-24.479 -122.402,0 z"
       style="fill:#42338b;fill-opacity:1;fill-rule:nonzero;stroke:none"
       id="path1660"
       inkscape:connector-curvature="0" /><g
       id="g1662"
       transform="translate(-497.62031,164.70531)"><g
         id="g1664"
         clip-path="url(#clipPath1668)"><g
           id="g1670"
           transform="translate(1004.6542,164.9158)"><path
             d="m 0,0 c -1.444,0 -2.583,0.493 -3.419,1.404 -0.798,0.913 -1.215,2.204 -1.215,3.837 0,1.329 0.151,2.545 0.494,3.761 0.341,1.253 0.797,2.279 1.367,3.115 0.569,0.797 1.216,1.405 1.937,1.785 0.743,0.433 1.653,0.608 2.508,0.608 1.366,0 2.43,-0.494 3.228,-1.444 C 5.66,12.155 6.038,10.863 6.038,9.23 6.038,7.521 5.811,5.963 5.28,4.482 4.748,3.037 4.027,1.936 3.153,1.254 L 4.483,-0.38 1.215,-2.014 0.684,-1.103 Z M 0.532,10.749 C 0.341,10.521 0.151,10.179 0,9.724 -0.228,9.078 -0.38,8.318 -0.532,7.444 -0.646,6.532 -0.722,5.697 -0.722,4.937 c 0,-0.532 0.076,-0.911 0.19,-1.139 0.152,-0.229 0.38,-0.342 0.683,-0.342 0.368,0 0.484,0.116 0.722,0.304 0.234,0.182 0.381,0.57 0.532,1.063 0.228,0.608 0.381,1.368 0.494,2.242 0.152,0.873 0.228,1.709 0.228,2.469 0,0.532 -0.076,0.911 -0.228,1.177 -0.113,0.228 -0.342,0.342 -0.609,0.342 -0.32,0 -0.54,-0.084 -0.758,-0.304"
             style="fill:#ffffff;fill-opacity:1;fill-rule:nonzero;stroke:none"
             id="path1672"
             inkscape:connector-curvature="0" /></g><g
           id="g1674"
           transform="translate(1020.8348,170.1956)"><path
             d="m 0,0 0,-0.152 c -0.265,-1.672 -0.684,-2.849 -1.254,-3.534 -0.455,-0.532 -1.024,-0.948 -1.709,-1.215 -0.683,-0.266 -1.481,-0.379 -2.431,-0.379 -1.442,0 -2.544,0.304 -3.265,0.911 -0.685,0.608 -1.065,1.558 -1.065,2.812 0,0.228 0.038,0.454 0.038,0.682 0.039,0.229 0.077,0.532 0.115,0.875 l 1.406,8.964 3.912,0 -1.482,-9.344 c -0.037,-0.077 -0.037,-0.152 -0.037,-0.191 l 0,-0.227 c 0,-0.228 0.074,-0.417 0.189,-0.57 0.151,-0.114 0.342,-0.189 0.569,-0.189 0.304,0 0.532,0.075 0.722,0.303 0.153,0.19 0.304,0.494 0.342,0.874 l 1.482,9.344 3.912,0 z"
             style="fill:#ffffff;fill-opacity:1;fill-rule:nonzero;stroke:none"
             id="path1676"
             inkscape:connector-curvature="0" /></g></g></g><g
       id="g1678"
       transform="translate(527.96329,329.92471)"><path
         d="m 0,0 -3.608,0 -0.266,0 0.266,1.822 1.936,12.118 3.875,0 z"
         style="fill:#ffffff;fill-opacity:1;fill-rule:nonzero;stroke:none"
         id="path1680"
         inkscape:connector-curvature="0" /></g><g
       id="g1682"
       transform="translate(540.76419,332.01331)"><path
         d="m 0,0 -0.797,-2.089 0.797,0 3.191,0 0.609,2.051 1.633,0 0.683,0 -0.037,-2.051 3.95,0 -0.987,13.94 -3.609,0 -0.988,0 z M 4.636,2.773 5.433,5.356 6.231,7.939 6.192,2.773 Z"
         style="fill:#ffffff;fill-opacity:1;fill-rule:nonzero;stroke:none"
         id="path1684"
         inkscape:connector-curvature="0" /></g><g
       id="g1686"
       transform="translate(539.35859,329.92471)"><path
         d="M 0,0 -3.608,0 -4.937,7.217 -6.153,0 l -3.305,0 2.203,13.94 3.609,0 1.254,-7.483 1.291,7.483 3.267,0 z"
         style="fill:#ffffff;fill-opacity:1;fill-rule:nonzero;stroke:none"
         id="path1688"
         inkscape:connector-curvature="0" /></g><g
       id="g1690"
       transform="translate(-497.62031,164.70531)"><g
         id="g1692"
         clip-path="url(#clipPath1696)"><g
           id="g1698"
           transform="translate(985.7825,179.0967)"><path
             d="M 0,0 C 0,1.52 -1.228,2.806 -2.807,2.806 -4.327,2.806 -5.613,1.52 -5.613,0 l 0,-0.292 -0.294,-0.058 c -1.577,0 -2.806,-1.228 -2.806,-2.808 0,-1.519 1.229,-2.806 2.806,-2.806 l 5.907,0 z"
             style="fill:#ffffff;fill-opacity:1;fill-rule:nonzero;stroke:none"
             id="path1700"
             inkscape:connector-curvature="0" /></g><g
           id="g1702"
           transform="translate(985.7825,166.3509)"><path
             d="m 0,0 c 0,-1.58 -1.228,-2.808 -2.807,-2.808 -1.52,0 -2.806,1.228 -2.806,2.808 l 0,0.292 -0.294,0 c -1.577,0 -2.806,1.286 -2.806,2.804 0,1.58 1.229,2.809 2.806,2.809 l 5.907,0 z"
             style="fill:#b1a8d3;fill-opacity:1;fill-rule:nonzero;stroke:none"
             id="path1704"
             inkscape:connector-curvature="0" /></g><g
           id="g1706"
           transform="translate(986.66,179.0967)"><path
             d="M 0,0 C 0,1.52 1.286,2.806 2.806,2.806 4.385,2.806 5.613,1.52 5.613,0 l 0,-0.292 0.352,-0.058 c 1.518,0 2.805,-1.228 2.805,-2.808 0,-1.519 -1.287,-2.806 -2.805,-2.806 l -5.965,0 z"
             style="fill:#b1a8d3;fill-opacity:1;fill-rule:nonzero;stroke:none"
             id="path1708"
             inkscape:connector-curvature="0" /></g><g
           id="g1710"
           transform="translate(986.66,166.3509)"><path
             d="m 0,0 c 0,-1.58 1.286,-2.808 2.806,-2.808 1.579,0 2.807,1.228 2.807,2.808 l 0,0.292 0.352,0 c 1.518,0 2.805,1.286 2.805,2.804 0,1.58 -1.287,2.809 -2.805,2.809 L 0,5.905 Z"
             style="fill:#ffffff;fill-opacity:1;fill-rule:nonzero;stroke:none"
             id="path1712"
             inkscape:connector-curvature="0" /></g></g></g></g></svg>